%TF.GenerationSoftware,KiCad,Pcbnew,8.0.4*%
%TF.CreationDate,2024-09-09T18:44:27-05:00*%
%TF.ProjectId,PCB 1,50434220-312e-46b6-9963-61645f706362,rev?*%
%TF.SameCoordinates,Original*%
%TF.FileFunction,Copper,L2,Bot*%
%TF.FilePolarity,Positive*%
%FSLAX46Y46*%
G04 Gerber Fmt 4.6, Leading zero omitted, Abs format (unit mm)*
G04 Created by KiCad (PCBNEW 8.0.4) date 2024-09-09 18:44:27*
%MOMM*%
%LPD*%
G01*
G04 APERTURE LIST*
G04 Aperture macros list*
%AMRoundRect*
0 Rectangle with rounded corners*
0 $1 Rounding radius*
0 $2 $3 $4 $5 $6 $7 $8 $9 X,Y pos of 4 corners*
0 Add a 4 corners polygon primitive as box body*
4,1,4,$2,$3,$4,$5,$6,$7,$8,$9,$2,$3,0*
0 Add four circle primitives for the rounded corners*
1,1,$1+$1,$2,$3*
1,1,$1+$1,$4,$5*
1,1,$1+$1,$6,$7*
1,1,$1+$1,$8,$9*
0 Add four rect primitives between the rounded corners*
20,1,$1+$1,$2,$3,$4,$5,0*
20,1,$1+$1,$4,$5,$6,$7,0*
20,1,$1+$1,$6,$7,$8,$9,0*
20,1,$1+$1,$8,$9,$2,$3,0*%
G04 Aperture macros list end*
%TA.AperFunction,ComponentPad*%
%ADD10R,1.200000X1.200000*%
%TD*%
%TA.AperFunction,ComponentPad*%
%ADD11C,1.200000*%
%TD*%
%TA.AperFunction,ComponentPad*%
%ADD12R,3.000000X3.000000*%
%TD*%
%TA.AperFunction,ComponentPad*%
%ADD13C,3.000000*%
%TD*%
%TA.AperFunction,ComponentPad*%
%ADD14C,1.524000*%
%TD*%
%TA.AperFunction,ComponentPad*%
%ADD15R,3.500000X3.500000*%
%TD*%
%TA.AperFunction,ComponentPad*%
%ADD16RoundRect,0.750000X-1.000000X0.750000X-1.000000X-0.750000X1.000000X-0.750000X1.000000X0.750000X0*%
%TD*%
%TA.AperFunction,ComponentPad*%
%ADD17RoundRect,0.875000X-0.875000X0.875000X-0.875000X-0.875000X0.875000X-0.875000X0.875000X0.875000X0*%
%TD*%
%TA.AperFunction,ComponentPad*%
%ADD18C,3.500000*%
%TD*%
%TA.AperFunction,ComponentPad*%
%ADD19R,1.600000X1.600000*%
%TD*%
%TA.AperFunction,ComponentPad*%
%ADD20O,1.600000X1.600000*%
%TD*%
%TA.AperFunction,ComponentPad*%
%ADD21R,1.700000X1.700000*%
%TD*%
%TA.AperFunction,ComponentPad*%
%ADD22O,1.700000X1.700000*%
%TD*%
%TA.AperFunction,ComponentPad*%
%ADD23R,1.130000X1.130000*%
%TD*%
%TA.AperFunction,ComponentPad*%
%ADD24C,1.130000*%
%TD*%
%TA.AperFunction,ComponentPad*%
%ADD25R,2.000000X2.000000*%
%TD*%
%TA.AperFunction,ComponentPad*%
%ADD26C,2.000000*%
%TD*%
%TA.AperFunction,ComponentPad*%
%ADD27C,1.600000*%
%TD*%
%TA.AperFunction,ViaPad*%
%ADD28C,1.100000*%
%TD*%
%TA.AperFunction,Conductor*%
%ADD29C,1.000000*%
%TD*%
%TA.AperFunction,Conductor*%
%ADD30C,0.600000*%
%TD*%
G04 APERTURE END LIST*
D10*
%TO.P,C2,1*%
%TO.N,+5V*%
X119500000Y-84000000D03*
D11*
%TO.P,C2,2*%
%TO.N,GND*%
X121500000Y-84000000D03*
%TD*%
D12*
%TO.P,J8,1,Pin_1*%
%TO.N,/Y3*%
X104000000Y-137460000D03*
D13*
%TO.P,J8,2,Pin_2*%
%TO.N,/Y4*%
X104000000Y-142540000D03*
%TD*%
D14*
%TO.P,U4,1,VIN*%
%TO.N,VDC*%
X147800000Y-74000000D03*
%TO.P,U4,2,GND*%
%TO.N,GND*%
X150340000Y-74000000D03*
%TO.P,U4,3,GND*%
X152880000Y-74000000D03*
%TO.P,U4,4,BAT*%
%TO.N,+BATT*%
X155420000Y-74000000D03*
%TO.P,U4,5,GND*%
%TO.N,GND*%
X157960000Y-74000000D03*
%TO.P,U4,6,OUT-5V*%
%TO.N,+5V*%
X160500000Y-74000000D03*
%TD*%
D15*
%TO.P,J3,1*%
%TO.N,VDC*%
X132000000Y-60500000D03*
D16*
%TO.P,J3,2*%
%TO.N,GND*%
X132000000Y-54500000D03*
D17*
%TO.P,J3,3*%
X127300000Y-57500000D03*
%TD*%
D15*
%TO.P,BT1,1,+*%
%TO.N,+BATT*%
X178500000Y-58000000D03*
D18*
%TO.P,BT1,2,-*%
%TO.N,GND*%
X178500000Y-130000000D03*
%TD*%
D19*
%TO.P,U2,1,EN1\u002C2*%
%TO.N,/EN12*%
X121000000Y-142080000D03*
D20*
%TO.P,U2,2,1A*%
%TO.N,/1A*%
X121000000Y-139540000D03*
%TO.P,U2,3,1Y*%
%TO.N,/Y1*%
X121000000Y-137000000D03*
%TO.P,U2,4,GND*%
%TO.N,GND*%
X121000000Y-134460000D03*
%TO.P,U2,5,GND*%
X121000000Y-131920000D03*
%TO.P,U2,6,2Y*%
%TO.N,/Y2*%
X121000000Y-129380000D03*
%TO.P,U2,7,2A*%
%TO.N,/2A*%
X121000000Y-126840000D03*
%TO.P,U2,8,VCC2*%
%TO.N,+5V*%
X121000000Y-124300000D03*
%TO.P,U2,9,EN3\u002C4*%
%TO.N,/EN34*%
X113380000Y-124300000D03*
%TO.P,U2,10,3A*%
%TO.N,/3A*%
X113380000Y-126840000D03*
%TO.P,U2,11,3Y*%
%TO.N,/Y3*%
X113380000Y-129380000D03*
%TO.P,U2,12,GND*%
%TO.N,GND*%
X113380000Y-131920000D03*
%TO.P,U2,13,GND*%
X113380000Y-134460000D03*
%TO.P,U2,14,4Y*%
%TO.N,/Y4*%
X113380000Y-137000000D03*
%TO.P,U2,15,4A*%
%TO.N,/4A*%
X113380000Y-139540000D03*
%TO.P,U2,16,VCC1*%
%TO.N,+5V*%
X113380000Y-142080000D03*
%TD*%
D12*
%TO.P,J7,1,Pin_1*%
%TO.N,/Y1*%
X183500000Y-144540000D03*
D13*
%TO.P,J7,2,Pin_2*%
%TO.N,/Y2*%
X183500000Y-139460000D03*
%TD*%
D21*
%TO.P,J2,1,Pin_1*%
%TO.N,+5V*%
X97000000Y-77500000D03*
D22*
%TO.P,J2,2,Pin_2*%
%TO.N,Net-(J2-Pin_2)*%
X99540000Y-77500000D03*
%TO.P,J2,3,Pin_3*%
%TO.N,Net-(J2-Pin_3)*%
X102080000Y-77500000D03*
%TO.P,J2,4,Pin_4*%
%TO.N,Net-(J2-Pin_4)*%
X104620000Y-77500000D03*
%TO.P,J2,5,Pin_5*%
%TO.N,Net-(J2-Pin_5)*%
X107160000Y-77500000D03*
%TD*%
D23*
%TO.P,U3,1,I1*%
%TO.N,/I1*%
X99610000Y-97470000D03*
D24*
%TO.P,U3,2,I2*%
%TO.N,/I2*%
X102150000Y-97470000D03*
%TO.P,U3,3,I3*%
%TO.N,/I3*%
X104690000Y-97470000D03*
%TO.P,U3,4,I4*%
%TO.N,/I4*%
X107230000Y-97470000D03*
%TO.P,U3,5,I5*%
%TO.N,unconnected-(U3-I5-Pad5)*%
X109770000Y-97470000D03*
%TO.P,U3,6,I6*%
%TO.N,unconnected-(U3-I6-Pad6)*%
X112310000Y-97470000D03*
%TO.P,U3,7,I7*%
%TO.N,unconnected-(U3-I7-Pad7)*%
X114850000Y-97470000D03*
%TO.P,U3,8,GND*%
%TO.N,GND*%
X117390000Y-97470000D03*
%TO.P,U3,9,COM*%
%TO.N,+5V*%
X117390000Y-89530000D03*
%TO.P,U3,10,O7*%
%TO.N,unconnected-(U3-O7-Pad10)*%
X114850000Y-89530000D03*
%TO.P,U3,11,O6*%
%TO.N,unconnected-(U3-O6-Pad11)*%
X112310000Y-89530000D03*
%TO.P,U3,12,O5*%
%TO.N,unconnected-(U3-O5-Pad12)*%
X109770000Y-89530000D03*
%TO.P,U3,13,O4*%
%TO.N,Net-(J2-Pin_5)*%
X107230000Y-89530000D03*
%TO.P,U3,14,O3*%
%TO.N,Net-(J2-Pin_4)*%
X104690000Y-89530000D03*
%TO.P,U3,15,O2*%
%TO.N,Net-(J2-Pin_3)*%
X102150000Y-89530000D03*
%TO.P,U3,16,O1*%
%TO.N,Net-(J2-Pin_2)*%
X99610000Y-89530000D03*
%TD*%
D21*
%TO.P,J1,1,Pin_1*%
%TO.N,+5V*%
X114475000Y-68325000D03*
D22*
%TO.P,J1,2,Pin_2*%
%TO.N,GND*%
X114475000Y-65785000D03*
%TO.P,J1,3,Pin_3*%
%TO.N,/SCL*%
X114475000Y-63245000D03*
%TO.P,J1,4,Pin_4*%
%TO.N,/SDA*%
X114475000Y-60705000D03*
%TO.P,J1,5,Pin_5*%
%TO.N,unconnected-(J1-Pin_5-Pad5)*%
X114475000Y-58165000D03*
%TO.P,J1,6,Pin_6*%
%TO.N,unconnected-(J1-Pin_6-Pad6)*%
X114475000Y-55625000D03*
%TD*%
D25*
%TO.P,U1,1,3V3*%
%TO.N,unconnected-(U1-3V3-Pad1)*%
X156700000Y-125515000D03*
D26*
%TO.P,U1,2,GND*%
%TO.N,GND*%
X156700000Y-122975000D03*
%TO.P,U1,3,D15*%
%TO.N,/EN12*%
X156700000Y-120435000D03*
%TO.P,U1,4,D2*%
%TO.N,/1A*%
X156700000Y-117895000D03*
%TO.P,U1,5,D4*%
%TO.N,/2A*%
X156700000Y-115355000D03*
%TO.P,U1,6,RX2*%
%TO.N,unconnected-(U1-RX2-Pad6)*%
X156700000Y-112815000D03*
%TO.P,U1,7,TX2*%
%TO.N,unconnected-(U1-TX2-Pad7)*%
X156700000Y-110275000D03*
%TO.P,U1,8,D5*%
%TO.N,unconnected-(U1-D5-Pad8)*%
X156700000Y-107735000D03*
%TO.P,U1,9,D18*%
%TO.N,unconnected-(U1-D18-Pad9)*%
X156700000Y-105195000D03*
%TO.P,U1,10,D19*%
%TO.N,unconnected-(U1-D19-Pad10)*%
X156700000Y-102655000D03*
%TO.P,U1,11,D21*%
%TO.N,/SDA*%
X156700000Y-100115000D03*
%TO.P,U1,12,RX0*%
%TO.N,unconnected-(U1-RX0-Pad12)*%
X156700000Y-97575000D03*
%TO.P,U1,13,TX0*%
%TO.N,unconnected-(U1-TX0-Pad13)*%
X156700000Y-95035000D03*
%TO.P,U1,14,D22*%
%TO.N,/SCL*%
X156700000Y-92495000D03*
%TO.P,U1,15,D23*%
%TO.N,unconnected-(U1-D23-Pad15)*%
X156700000Y-89955000D03*
%TO.P,U1,16,EN*%
%TO.N,unconnected-(U1-EN-Pad16)*%
X131300000Y-89955000D03*
%TO.P,U1,17,VP*%
%TO.N,unconnected-(U1-VP-Pad17)*%
X131300000Y-92495000D03*
%TO.P,U1,18,VN*%
%TO.N,unconnected-(U1-VN-Pad18)*%
X131300000Y-95035000D03*
%TO.P,U1,19,D34*%
%TO.N,unconnected-(U1-D34-Pad19)*%
X131300000Y-97575000D03*
%TO.P,U1,20,D35*%
%TO.N,unconnected-(U1-D35-Pad20)*%
X131300000Y-100115000D03*
%TO.P,U1,21,D32*%
%TO.N,unconnected-(U1-D32-Pad21)*%
X131300000Y-102655000D03*
%TO.P,U1,22,D33*%
%TO.N,/I4*%
X131300000Y-105195000D03*
%TO.P,U1,23,D25*%
%TO.N,/I3*%
X131300000Y-107735000D03*
%TO.P,U1,24,D26*%
%TO.N,/I2*%
X131300000Y-110275000D03*
%TO.P,U1,25,D27*%
%TO.N,/I1*%
X131300000Y-112815000D03*
%TO.P,U1,26,D14*%
%TO.N,/4A*%
X131300000Y-115355000D03*
%TO.P,U1,27,D12*%
%TO.N,/3A*%
X131300000Y-117895000D03*
%TO.P,U1,28,D13*%
%TO.N,/EN34*%
X131300000Y-120435000D03*
%TO.P,U1,29,GND*%
%TO.N,GND*%
X131300000Y-122975000D03*
%TO.P,U1,30,VIN*%
%TO.N,+5V*%
X131300000Y-125515000D03*
%TD*%
D19*
%TO.P,C1,1*%
%TO.N,+5V*%
X99000000Y-115000000D03*
D27*
%TO.P,C1,2*%
%TO.N,GND*%
X104000000Y-115000000D03*
%TD*%
D28*
%TO.N,GND*%
X138500000Y-142000000D03*
X127500000Y-137000000D03*
X109000000Y-133500000D03*
X99500000Y-126500000D03*
X123000000Y-53500000D03*
X117500000Y-66000000D03*
X128500000Y-80000000D03*
X124500000Y-85500000D03*
%TO.N,+5V*%
X127000000Y-103000000D03*
X127000000Y-122500000D03*
%TD*%
D29*
%TO.N,+5V*%
X114475000Y-70475000D02*
X114475000Y-68325000D01*
X114500000Y-70500000D02*
X114475000Y-70475000D01*
X97000000Y-77500000D02*
X97000000Y-75000000D01*
X98500000Y-73500000D02*
X112500000Y-73500000D01*
X112500000Y-73500000D02*
X114500000Y-71500000D01*
X126000000Y-124500000D02*
X126000000Y-123500000D01*
X95500000Y-117000000D02*
X94000000Y-115500000D01*
X94000000Y-115500000D02*
X94000000Y-80500000D01*
X127000000Y-103000000D02*
X127000000Y-93500000D01*
X95500000Y-146000000D02*
X95500000Y-117000000D01*
X127000000Y-93500000D02*
X127000000Y-84000000D01*
X97500000Y-115000000D02*
X99000000Y-115000000D01*
X110000000Y-54000000D02*
X110000000Y-64000000D01*
X114500000Y-71500000D02*
X114500000Y-70500000D01*
X160350000Y-75650000D02*
X159000000Y-77000000D01*
X125800000Y-124300000D02*
X121000000Y-124300000D01*
X116000000Y-52000000D02*
X112000000Y-52000000D01*
X126500000Y-125000000D02*
X126000000Y-124500000D01*
X110000000Y-64000000D02*
X110000000Y-66000000D01*
X97000000Y-75000000D02*
X98500000Y-73500000D01*
X160350000Y-73930000D02*
X160350000Y-75650000D01*
X98000000Y-148500000D02*
X95500000Y-146000000D01*
X112000000Y-52000000D02*
X110000000Y-54000000D01*
X97500000Y-115000000D02*
X95500000Y-117000000D01*
X127000000Y-84000000D02*
X117390000Y-74390000D01*
X126000000Y-124500000D02*
X125800000Y-124300000D01*
X118500000Y-56000000D02*
X118500000Y-54500000D01*
X119500000Y-84000000D02*
X118390000Y-84000000D01*
X139500000Y-77000000D02*
X118500000Y-56000000D01*
X110000000Y-66000000D02*
X112325000Y-68325000D01*
X118500000Y-54500000D02*
X116000000Y-52000000D01*
X131300000Y-125515000D02*
X127015000Y-125515000D01*
X94000000Y-80500000D02*
X97000000Y-77500000D01*
X159000000Y-77000000D02*
X139500000Y-77000000D01*
X112325000Y-68325000D02*
X114475000Y-68325000D01*
X118390000Y-84000000D02*
X117390000Y-85000000D01*
X113380000Y-142080000D02*
X113380000Y-143620000D01*
X127015000Y-125515000D02*
X126500000Y-125000000D01*
X113380000Y-143620000D02*
X108500000Y-148500000D01*
X117390000Y-89530000D02*
X117390000Y-85000000D01*
X126000000Y-123500000D02*
X127000000Y-122500000D01*
X108500000Y-148500000D02*
X98000000Y-148500000D01*
X117390000Y-74390000D02*
X114500000Y-71500000D01*
X117390000Y-85000000D02*
X117390000Y-74390000D01*
D30*
%TO.N,/SDA*%
X162000000Y-83500000D02*
X162000000Y-95500000D01*
X162000000Y-95500000D02*
X157385000Y-100115000D01*
X114475000Y-60705000D02*
X119205000Y-60705000D01*
X157385000Y-100115000D02*
X156700000Y-100115000D01*
X138500000Y-80000000D02*
X158500000Y-80000000D01*
X158500000Y-80000000D02*
X162000000Y-83500000D01*
X119205000Y-60705000D02*
X138500000Y-80000000D01*
%TO.N,/SCL*%
X118745000Y-63245000D02*
X137500000Y-82000000D01*
X114475000Y-63245000D02*
X118745000Y-63245000D01*
X158505000Y-92495000D02*
X156700000Y-92495000D01*
X160500000Y-90500000D02*
X158505000Y-92495000D01*
X158000000Y-82000000D02*
X160500000Y-84500000D01*
X137500000Y-82000000D02*
X158000000Y-82000000D01*
X160500000Y-84500000D02*
X160500000Y-90500000D01*
%TO.N,Net-(J2-Pin_4)*%
X104690000Y-89530000D02*
X104690000Y-77570000D01*
X104690000Y-77570000D02*
X104620000Y-77500000D01*
%TO.N,Net-(J2-Pin_5)*%
X107230000Y-89530000D02*
X107230000Y-77570000D01*
X107230000Y-77570000D02*
X107160000Y-77500000D01*
%TO.N,Net-(J2-Pin_2)*%
X99500000Y-77580000D02*
X99420000Y-77500000D01*
X99500000Y-89420000D02*
X99500000Y-77580000D01*
X99610000Y-89530000D02*
X99500000Y-89420000D01*
%TO.N,Net-(J2-Pin_3)*%
X102150000Y-77570000D02*
X102080000Y-77500000D01*
X102150000Y-89530000D02*
X102150000Y-77570000D01*
%TO.N,/1A*%
X129960000Y-139540000D02*
X121000000Y-139540000D01*
X156700000Y-117895000D02*
X151605000Y-117895000D01*
X151605000Y-117895000D02*
X129960000Y-139540000D01*
D29*
%TO.N,/EN12*%
X121000000Y-142080000D02*
X131420000Y-142080000D01*
X153065000Y-120435000D02*
X156700000Y-120435000D01*
X131420000Y-142080000D02*
X153065000Y-120435000D01*
%TO.N,/EN34*%
X117245000Y-120435000D02*
X131300000Y-120435000D01*
X113380000Y-124300000D02*
X117245000Y-120435000D01*
D30*
%TO.N,/3A*%
X115105000Y-117895000D02*
X131300000Y-117895000D01*
X110840000Y-126840000D02*
X109500000Y-125500000D01*
X109500000Y-125500000D02*
X109500000Y-123500000D01*
X109500000Y-123500000D02*
X115105000Y-117895000D01*
X113380000Y-126840000D02*
X110840000Y-126840000D01*
%TO.N,/4A*%
X98500000Y-145000000D02*
X98500000Y-131500000D01*
X113380000Y-139540000D02*
X113420000Y-139500000D01*
X113380000Y-139540000D02*
X106420000Y-146500000D01*
X100000000Y-146500000D02*
X98500000Y-145000000D01*
X98500000Y-131500000D02*
X114645000Y-115355000D01*
X106420000Y-146500000D02*
X100000000Y-146500000D01*
X114645000Y-115355000D02*
X131300000Y-115355000D01*
X113420000Y-139500000D02*
X114000000Y-139500000D01*
%TO.N,/2A*%
X121000000Y-126840000D02*
X122160000Y-128000000D01*
X147145000Y-115355000D02*
X156700000Y-115355000D01*
X122160000Y-128000000D02*
X134500000Y-128000000D01*
X134500000Y-128000000D02*
X147145000Y-115355000D01*
%TO.N,/I3*%
X104690000Y-98690000D02*
X109000000Y-103000000D01*
X118500000Y-103000000D02*
X123235000Y-107735000D01*
X104690000Y-97470000D02*
X104690000Y-98690000D01*
X123235000Y-107735000D02*
X131300000Y-107735000D01*
X109000000Y-103000000D02*
X118500000Y-103000000D01*
%TO.N,/I4*%
X119500000Y-101000000D02*
X123695000Y-105195000D01*
X107230000Y-97470000D02*
X110760000Y-101000000D01*
X110760000Y-101000000D02*
X119500000Y-101000000D01*
X123695000Y-105195000D02*
X131300000Y-105195000D01*
%TO.N,/I1*%
X99610000Y-97470000D02*
X99610000Y-100610000D01*
X116500000Y-107000000D02*
X122315000Y-112815000D01*
X99610000Y-100610000D02*
X106000000Y-107000000D01*
X122315000Y-112815000D02*
X131300000Y-112815000D01*
X106000000Y-107000000D02*
X116500000Y-107000000D01*
%TO.N,/I2*%
X117500000Y-105000000D02*
X122775000Y-110275000D01*
X102150000Y-99650000D02*
X107500000Y-105000000D01*
X122775000Y-110275000D02*
X131300000Y-110275000D01*
X107500000Y-105000000D02*
X117500000Y-105000000D01*
X102150000Y-97470000D02*
X102150000Y-99650000D01*
D29*
%TO.N,+BATT*%
X161000000Y-58000000D02*
X155270000Y-63730000D01*
X155270000Y-63730000D02*
X155270000Y-73930000D01*
X178500000Y-58000000D02*
X161000000Y-58000000D01*
%TO.N,VDC*%
X132000000Y-60500000D02*
X145430000Y-73930000D01*
X145430000Y-73930000D02*
X147650000Y-73930000D01*
X132000000Y-60500000D02*
X132720000Y-60500000D01*
%TO.N,/Y2*%
X190000000Y-142000000D02*
X187460000Y-139460000D01*
X116000000Y-144500000D02*
X119500000Y-148000000D01*
X121000000Y-129380000D02*
X119620000Y-129380000D01*
X119500000Y-148000000D02*
X187500000Y-148000000D01*
X187460000Y-139460000D02*
X183500000Y-139460000D01*
X116000000Y-133000000D02*
X116000000Y-144500000D01*
X119620000Y-129380000D02*
X116000000Y-133000000D01*
X187500000Y-148000000D02*
X190000000Y-145500000D01*
X190000000Y-145500000D02*
X190000000Y-142000000D01*
%TO.N,/Y1*%
X119500000Y-137000000D02*
X118500000Y-138000000D01*
X118500000Y-138000000D02*
X118500000Y-143000000D01*
X121000000Y-137000000D02*
X119500000Y-137000000D01*
X118500000Y-143000000D02*
X120040000Y-144540000D01*
X120040000Y-144540000D02*
X183500000Y-144540000D01*
%TO.N,/Y4*%
X104000000Y-142540000D02*
X109540000Y-137000000D01*
X109540000Y-137000000D02*
X113380000Y-137000000D01*
%TO.N,/Y3*%
X104000000Y-133500000D02*
X108120000Y-129380000D01*
X104000000Y-137460000D02*
X104000000Y-133500000D01*
X108120000Y-129380000D02*
X113380000Y-129380000D01*
%TD*%
%TA.AperFunction,Conductor*%
%TO.N,GND*%
G36*
X191942539Y-50020185D02*
G01*
X191988294Y-50072989D01*
X191999500Y-50124500D01*
X191999500Y-148875500D01*
X191979815Y-148942539D01*
X191927011Y-148988294D01*
X191875500Y-148999500D01*
X188497626Y-148999500D01*
X188430587Y-148979815D01*
X188384832Y-148927011D01*
X188374888Y-148857853D01*
X188403913Y-148794297D01*
X188409945Y-148787819D01*
X190109944Y-147087819D01*
X190915690Y-146282073D01*
X191026760Y-146129199D01*
X191112547Y-145960832D01*
X191170940Y-145781118D01*
X191171570Y-145777139D01*
X191200500Y-145594486D01*
X191200500Y-141905513D01*
X191170940Y-141718881D01*
X191112545Y-141539163D01*
X191026759Y-141370800D01*
X191026018Y-141369780D01*
X190919655Y-141223384D01*
X190915690Y-141217926D01*
X188242074Y-138544310D01*
X188089199Y-138433240D01*
X188056706Y-138416684D01*
X187920836Y-138347454D01*
X187741118Y-138289059D01*
X187554486Y-138259500D01*
X187554481Y-138259500D01*
X185410650Y-138259500D01*
X185343611Y-138239815D01*
X185307548Y-138204391D01*
X185304948Y-138200500D01*
X185249520Y-138117546D01*
X185207849Y-138070029D01*
X185059327Y-137900672D01*
X184842452Y-137710478D01*
X184602613Y-137550223D01*
X184602606Y-137550219D01*
X184343905Y-137422642D01*
X184070760Y-137329921D01*
X184070754Y-137329919D01*
X184070753Y-137329919D01*
X184070751Y-137329918D01*
X184070745Y-137329917D01*
X183787849Y-137273646D01*
X183787839Y-137273644D01*
X183500000Y-137254778D01*
X183212161Y-137273644D01*
X183212155Y-137273645D01*
X183212150Y-137273646D01*
X182929254Y-137329917D01*
X182929239Y-137329921D01*
X182656094Y-137422642D01*
X182397393Y-137550219D01*
X182397386Y-137550223D01*
X182157547Y-137710478D01*
X181940672Y-137900672D01*
X181750478Y-138117547D01*
X181590223Y-138357386D01*
X181590219Y-138357393D01*
X181462642Y-138616094D01*
X181369921Y-138889239D01*
X181369917Y-138889254D01*
X181313646Y-139172150D01*
X181313644Y-139172161D01*
X181294778Y-139460000D01*
X181308176Y-139664420D01*
X181313644Y-139747837D01*
X181313646Y-139747849D01*
X181369917Y-140030745D01*
X181369921Y-140030760D01*
X181462642Y-140303905D01*
X181590219Y-140562606D01*
X181590223Y-140562613D01*
X181750478Y-140802452D01*
X181940672Y-141019327D01*
X182157547Y-141209521D01*
X182178296Y-141223385D01*
X182397389Y-141369778D01*
X182656098Y-141497359D01*
X182929247Y-141590081D01*
X183212161Y-141646356D01*
X183500000Y-141665222D01*
X183787839Y-141646356D01*
X184070753Y-141590081D01*
X184343902Y-141497359D01*
X184602611Y-141369778D01*
X184842454Y-141209520D01*
X185059327Y-141019327D01*
X185249520Y-140802454D01*
X185307548Y-140715608D01*
X185361160Y-140670804D01*
X185410650Y-140660500D01*
X186911374Y-140660500D01*
X186978413Y-140680185D01*
X186999055Y-140696819D01*
X188763181Y-142460945D01*
X188796666Y-142522268D01*
X188799500Y-142548626D01*
X188799500Y-144951374D01*
X188779815Y-145018413D01*
X188763181Y-145039055D01*
X187039055Y-146763181D01*
X186977732Y-146796666D01*
X186951374Y-146799500D01*
X185530520Y-146799500D01*
X185463481Y-146779815D01*
X185417726Y-146727011D01*
X185407782Y-146657853D01*
X185436807Y-146594297D01*
X185442839Y-146587819D01*
X185555468Y-146475189D01*
X185555469Y-146475188D01*
X185555472Y-146475185D01*
X185643478Y-146329606D01*
X185694086Y-146167196D01*
X185700500Y-146096616D01*
X185700500Y-142983384D01*
X185694086Y-142912804D01*
X185643478Y-142750394D01*
X185555472Y-142604815D01*
X185555470Y-142604813D01*
X185555469Y-142604811D01*
X185435188Y-142484530D01*
X185289606Y-142396522D01*
X185127196Y-142345914D01*
X185127194Y-142345913D01*
X185127192Y-142345913D01*
X185077778Y-142341423D01*
X185056616Y-142339500D01*
X181943384Y-142339500D01*
X181924145Y-142341248D01*
X181872807Y-142345913D01*
X181710393Y-142396522D01*
X181564811Y-142484530D01*
X181444530Y-142604811D01*
X181356522Y-142750393D01*
X181305913Y-142912807D01*
X181299500Y-142983386D01*
X181299500Y-143215500D01*
X181279815Y-143282539D01*
X181227011Y-143328294D01*
X181175500Y-143339500D01*
X132108918Y-143339500D01*
X132041879Y-143319815D01*
X131996124Y-143267011D01*
X131986180Y-143197853D01*
X132015205Y-143134297D01*
X132045728Y-143110416D01*
X132045047Y-143109305D01*
X132049192Y-143106764D01*
X132049193Y-143106762D01*
X132049199Y-143106760D01*
X132202074Y-142995690D01*
X137852235Y-137345528D01*
X169749500Y-137345528D01*
X169749500Y-137654471D01*
X169784086Y-137961437D01*
X169784089Y-137961455D01*
X169852831Y-138262635D01*
X169852835Y-138262647D01*
X169954862Y-138554222D01*
X169954868Y-138554236D01*
X170088903Y-138832562D01*
X170088905Y-138832565D01*
X170253265Y-139094143D01*
X170445880Y-139335674D01*
X170664326Y-139554120D01*
X170905857Y-139746735D01*
X171167435Y-139911095D01*
X171445771Y-140045135D01*
X171445777Y-140045137D01*
X171737352Y-140147164D01*
X171737364Y-140147168D01*
X172038548Y-140215911D01*
X172038554Y-140215911D01*
X172038562Y-140215913D01*
X172243206Y-140238970D01*
X172345529Y-140250499D01*
X172345532Y-140250500D01*
X172345535Y-140250500D01*
X172654468Y-140250500D01*
X172654469Y-140250499D01*
X172811356Y-140232822D01*
X172961437Y-140215913D01*
X172961442Y-140215912D01*
X172961452Y-140215911D01*
X173262636Y-140147168D01*
X173554229Y-140045135D01*
X173832565Y-139911095D01*
X174094143Y-139746735D01*
X174335674Y-139554120D01*
X174554120Y-139335674D01*
X174746735Y-139094143D01*
X174911095Y-138832565D01*
X175045135Y-138554229D01*
X175147168Y-138262636D01*
X175215911Y-137961452D01*
X175216845Y-137953167D01*
X175243498Y-137716606D01*
X175250500Y-137654465D01*
X175250500Y-137345535D01*
X175215911Y-137038548D01*
X175147168Y-136737364D01*
X175045135Y-136445771D01*
X174911095Y-136167435D01*
X174746735Y-135905857D01*
X174554120Y-135664326D01*
X174335674Y-135445880D01*
X174094143Y-135253265D01*
X173832565Y-135088905D01*
X173832562Y-135088903D01*
X173554236Y-134954868D01*
X173554222Y-134954862D01*
X173262647Y-134852835D01*
X173262635Y-134852831D01*
X172961455Y-134784089D01*
X172961437Y-134784086D01*
X172654471Y-134749500D01*
X172654465Y-134749500D01*
X172345535Y-134749500D01*
X172345528Y-134749500D01*
X172038562Y-134784086D01*
X172038544Y-134784089D01*
X171737364Y-134852831D01*
X171737352Y-134852835D01*
X171445777Y-134954862D01*
X171445763Y-134954868D01*
X171167437Y-135088903D01*
X170905858Y-135253264D01*
X170664326Y-135445879D01*
X170445879Y-135664326D01*
X170253264Y-135905858D01*
X170088903Y-136167437D01*
X169954868Y-136445763D01*
X169954862Y-136445777D01*
X169852835Y-136737352D01*
X169852831Y-136737364D01*
X169784089Y-137038544D01*
X169784086Y-137038562D01*
X169749500Y-137345528D01*
X137852235Y-137345528D01*
X141837505Y-133360258D01*
X154529500Y-133360258D01*
X154529500Y-133589741D01*
X154554446Y-133779215D01*
X154559452Y-133817238D01*
X154607689Y-133997263D01*
X154618842Y-134038887D01*
X154706650Y-134250876D01*
X154706657Y-134250890D01*
X154821392Y-134449617D01*
X154961081Y-134631661D01*
X154961089Y-134631670D01*
X155123330Y-134793911D01*
X155123338Y-134793918D01*
X155305382Y-134933607D01*
X155305385Y-134933608D01*
X155305388Y-134933611D01*
X155504112Y-135048344D01*
X155504117Y-135048346D01*
X155504123Y-135048349D01*
X155595480Y-135086190D01*
X155716113Y-135136158D01*
X155937762Y-135195548D01*
X156165266Y-135225500D01*
X156165273Y-135225500D01*
X156394727Y-135225500D01*
X156394734Y-135225500D01*
X156622238Y-135195548D01*
X156843887Y-135136158D01*
X157055888Y-135048344D01*
X157254612Y-134933611D01*
X157436661Y-134793919D01*
X157436665Y-134793914D01*
X157436670Y-134793911D01*
X157598911Y-134631670D01*
X157598914Y-134631665D01*
X157598919Y-134631661D01*
X157738611Y-134449612D01*
X157853344Y-134250888D01*
X157941158Y-134038887D01*
X158000548Y-133817238D01*
X158030500Y-133589734D01*
X158030500Y-133360266D01*
X158000548Y-133132762D01*
X157941158Y-132911113D01*
X157853344Y-132699112D01*
X157738611Y-132500388D01*
X157738608Y-132500385D01*
X157738607Y-132500382D01*
X157598918Y-132318338D01*
X157598911Y-132318330D01*
X157436670Y-132156089D01*
X157436661Y-132156081D01*
X157254617Y-132016392D01*
X157055890Y-131901657D01*
X157055876Y-131901650D01*
X156843887Y-131813842D01*
X156622238Y-131754452D01*
X156584215Y-131749446D01*
X156394741Y-131724500D01*
X156394734Y-131724500D01*
X156165266Y-131724500D01*
X156165258Y-131724500D01*
X155948715Y-131753009D01*
X155937762Y-131754452D01*
X155844076Y-131779554D01*
X155716112Y-131813842D01*
X155504123Y-131901650D01*
X155504109Y-131901657D01*
X155305382Y-132016392D01*
X155123338Y-132156081D01*
X154961081Y-132318338D01*
X154821392Y-132500382D01*
X154706657Y-132699109D01*
X154706650Y-132699123D01*
X154618842Y-132911112D01*
X154559453Y-133132759D01*
X154559451Y-133132770D01*
X154529500Y-133360258D01*
X141837505Y-133360258D01*
X150739376Y-124458386D01*
X154999500Y-124458386D01*
X154999500Y-126571613D01*
X155005913Y-126642192D01*
X155005913Y-126642194D01*
X155005914Y-126642196D01*
X155056522Y-126804606D01*
X155077915Y-126839995D01*
X155144530Y-126950188D01*
X155264811Y-127070469D01*
X155264813Y-127070470D01*
X155264815Y-127070472D01*
X155410394Y-127158478D01*
X155572804Y-127209086D01*
X155643384Y-127215500D01*
X155643387Y-127215500D01*
X157756613Y-127215500D01*
X157756616Y-127215500D01*
X157827196Y-127209086D01*
X157989606Y-127158478D01*
X158135185Y-127070472D01*
X158255472Y-126950185D01*
X158343478Y-126804606D01*
X158394086Y-126642196D01*
X158400500Y-126571616D01*
X158400500Y-124458384D01*
X158394086Y-124387804D01*
X158343478Y-124225394D01*
X158255472Y-124079815D01*
X158255470Y-124079813D01*
X158255469Y-124079811D01*
X158135188Y-123959530D01*
X158060567Y-123914420D01*
X157989606Y-123871522D01*
X157827196Y-123820914D01*
X157827194Y-123820913D01*
X157827192Y-123820913D01*
X157777778Y-123816423D01*
X157756616Y-123814500D01*
X155643384Y-123814500D01*
X155624145Y-123816248D01*
X155572807Y-123820913D01*
X155410393Y-123871522D01*
X155264811Y-123959530D01*
X155144530Y-124079811D01*
X155056522Y-124225393D01*
X155005913Y-124387807D01*
X154999500Y-124458386D01*
X150739376Y-124458386D01*
X153525944Y-121671818D01*
X153587267Y-121638334D01*
X153613625Y-121635500D01*
X155445065Y-121635500D01*
X155512104Y-121655185D01*
X155529403Y-121668599D01*
X155636783Y-121768232D01*
X155847366Y-121911805D01*
X155847371Y-121911807D01*
X155847372Y-121911808D01*
X155847373Y-121911809D01*
X155969328Y-121970538D01*
X156076992Y-122022387D01*
X156076993Y-122022387D01*
X156076996Y-122022389D01*
X156320542Y-122097513D01*
X156572565Y-122135500D01*
X156827435Y-122135500D01*
X156839304Y-122133711D01*
X176649500Y-122133711D01*
X176649500Y-122376288D01*
X176681161Y-122616785D01*
X176743947Y-122851104D01*
X176836773Y-123075205D01*
X176836777Y-123075214D01*
X176841036Y-123082591D01*
X176958064Y-123285289D01*
X176958066Y-123285292D01*
X176958067Y-123285293D01*
X177105733Y-123477736D01*
X177105739Y-123477743D01*
X177277256Y-123649260D01*
X177277262Y-123649265D01*
X177469711Y-123796936D01*
X177679788Y-123918224D01*
X177875269Y-123999195D01*
X177883818Y-124002736D01*
X177903900Y-124011054D01*
X178138211Y-124073838D01*
X178318586Y-124097584D01*
X178378711Y-124105500D01*
X178378712Y-124105500D01*
X178621289Y-124105500D01*
X178669388Y-124099167D01*
X178861789Y-124073838D01*
X179096100Y-124011054D01*
X179320212Y-123918224D01*
X179530289Y-123796936D01*
X179722738Y-123649265D01*
X179894265Y-123477738D01*
X180041936Y-123285289D01*
X180163224Y-123075212D01*
X180256054Y-122851100D01*
X180318838Y-122616789D01*
X180350500Y-122376288D01*
X180350500Y-122133712D01*
X180318838Y-121893211D01*
X180256054Y-121658900D01*
X180163224Y-121434788D01*
X180041936Y-121224711D01*
X179894265Y-121032262D01*
X179894260Y-121032256D01*
X179722743Y-120860739D01*
X179722736Y-120860733D01*
X179530293Y-120713067D01*
X179530292Y-120713066D01*
X179530289Y-120713064D01*
X179320212Y-120591776D01*
X179320205Y-120591773D01*
X179096104Y-120498947D01*
X178861785Y-120436161D01*
X178621289Y-120404500D01*
X178621288Y-120404500D01*
X178378712Y-120404500D01*
X178378711Y-120404500D01*
X178138214Y-120436161D01*
X177903895Y-120498947D01*
X177679794Y-120591773D01*
X177679785Y-120591777D01*
X177469706Y-120713067D01*
X177277263Y-120860733D01*
X177277256Y-120860739D01*
X177105739Y-121032256D01*
X177105733Y-121032263D01*
X176958067Y-121224706D01*
X176836777Y-121434785D01*
X176836773Y-121434794D01*
X176743947Y-121658895D01*
X176681161Y-121893214D01*
X176649500Y-122133711D01*
X156839304Y-122133711D01*
X157079458Y-122097513D01*
X157323004Y-122022389D01*
X157552634Y-121911805D01*
X157763217Y-121768232D01*
X157950050Y-121594877D01*
X158108959Y-121395612D01*
X158236393Y-121174888D01*
X158329508Y-120937637D01*
X158386222Y-120689157D01*
X158405268Y-120435000D01*
X158402982Y-120404500D01*
X158386222Y-120180845D01*
X158329509Y-119932369D01*
X158329508Y-119932363D01*
X158236393Y-119695112D01*
X158108959Y-119474388D01*
X157950050Y-119275123D01*
X157929330Y-119255898D01*
X157893576Y-119195870D01*
X157895951Y-119126041D01*
X157929331Y-119074101D01*
X157950050Y-119054877D01*
X158108959Y-118855612D01*
X158236393Y-118634888D01*
X158329508Y-118397637D01*
X158386222Y-118149157D01*
X158405268Y-117895000D01*
X158386222Y-117640843D01*
X158329508Y-117392363D01*
X158236393Y-117155112D01*
X158108959Y-116934388D01*
X157950050Y-116735123D01*
X157929330Y-116715898D01*
X157893576Y-116655870D01*
X157895951Y-116586041D01*
X157929331Y-116534101D01*
X157950050Y-116514877D01*
X158108959Y-116315612D01*
X158236393Y-116094888D01*
X158329508Y-115857637D01*
X158386222Y-115609157D01*
X158405268Y-115355000D01*
X158386222Y-115100843D01*
X158329508Y-114852363D01*
X158236393Y-114615112D01*
X158108959Y-114394388D01*
X157950050Y-114195123D01*
X157929330Y-114175898D01*
X157893576Y-114115870D01*
X157895951Y-114046041D01*
X157929331Y-113994101D01*
X157950050Y-113974877D01*
X158108959Y-113775612D01*
X158236393Y-113554888D01*
X158329508Y-113317637D01*
X158386222Y-113069157D01*
X158405268Y-112815000D01*
X158386222Y-112560843D01*
X158329508Y-112312363D01*
X158236393Y-112075112D01*
X158108959Y-111854388D01*
X157950050Y-111655123D01*
X157929330Y-111635898D01*
X157893576Y-111575870D01*
X157895951Y-111506041D01*
X157929331Y-111454101D01*
X157950050Y-111434877D01*
X158108959Y-111235612D01*
X158236393Y-111014888D01*
X158329508Y-110777637D01*
X158386222Y-110529157D01*
X158405268Y-110275000D01*
X158403639Y-110253265D01*
X158391322Y-110088903D01*
X158386222Y-110020843D01*
X158329508Y-109772363D01*
X158236393Y-109535112D01*
X158108959Y-109314388D01*
X157950050Y-109115123D01*
X157929330Y-109095898D01*
X157893576Y-109035870D01*
X157895951Y-108966041D01*
X157929331Y-108914101D01*
X157950050Y-108894877D01*
X158108959Y-108695612D01*
X158236393Y-108474888D01*
X158329508Y-108237637D01*
X158386222Y-107989157D01*
X158402110Y-107777140D01*
X158405268Y-107735004D01*
X158405268Y-107734995D01*
X158386222Y-107480845D01*
X158355338Y-107345535D01*
X158355336Y-107345528D01*
X159749500Y-107345528D01*
X159749500Y-107654471D01*
X159784086Y-107961437D01*
X159784089Y-107961455D01*
X159852831Y-108262635D01*
X159852835Y-108262647D01*
X159954862Y-108554222D01*
X159954868Y-108554236D01*
X160088903Y-108832562D01*
X160128058Y-108894877D01*
X160253265Y-109094143D01*
X160445880Y-109335674D01*
X160664326Y-109554120D01*
X160905857Y-109746735D01*
X161167435Y-109911095D01*
X161445771Y-110045135D01*
X161445777Y-110045137D01*
X161737352Y-110147164D01*
X161737364Y-110147168D01*
X162038548Y-110215911D01*
X162038554Y-110215911D01*
X162038562Y-110215913D01*
X162243206Y-110238970D01*
X162345529Y-110250499D01*
X162345532Y-110250500D01*
X162345535Y-110250500D01*
X162654468Y-110250500D01*
X162654469Y-110250499D01*
X162811356Y-110232822D01*
X162961437Y-110215913D01*
X162961442Y-110215912D01*
X162961452Y-110215911D01*
X163262636Y-110147168D01*
X163554229Y-110045135D01*
X163832565Y-109911095D01*
X164094143Y-109746735D01*
X164335674Y-109554120D01*
X164554120Y-109335674D01*
X164746735Y-109094143D01*
X164911095Y-108832565D01*
X165045135Y-108554229D01*
X165147168Y-108262636D01*
X165215911Y-107961452D01*
X165250500Y-107654465D01*
X165250500Y-107345535D01*
X165215911Y-107038548D01*
X165147168Y-106737364D01*
X165045135Y-106445771D01*
X164911095Y-106167435D01*
X164746735Y-105905857D01*
X164554120Y-105664326D01*
X164335674Y-105445880D01*
X164094143Y-105253265D01*
X163832565Y-105088905D01*
X163832562Y-105088903D01*
X163554236Y-104954868D01*
X163554222Y-104954862D01*
X163262647Y-104852835D01*
X163262635Y-104852831D01*
X162961455Y-104784089D01*
X162961437Y-104784086D01*
X162654471Y-104749500D01*
X162654465Y-104749500D01*
X162345535Y-104749500D01*
X162345528Y-104749500D01*
X162038562Y-104784086D01*
X162038544Y-104784089D01*
X161737364Y-104852831D01*
X161737352Y-104852835D01*
X161445777Y-104954862D01*
X161445763Y-104954868D01*
X161167437Y-105088903D01*
X160905858Y-105253264D01*
X160664326Y-105445879D01*
X160445879Y-105664326D01*
X160253264Y-105905858D01*
X160088905Y-106167435D01*
X159954868Y-106445763D01*
X159954862Y-106445777D01*
X159852835Y-106737352D01*
X159852831Y-106737364D01*
X159784089Y-107038544D01*
X159784086Y-107038562D01*
X159749500Y-107345528D01*
X158355336Y-107345528D01*
X158329508Y-107232363D01*
X158236393Y-106995112D01*
X158108959Y-106774388D01*
X157950050Y-106575123D01*
X157929330Y-106555898D01*
X157893576Y-106495870D01*
X157895951Y-106426041D01*
X157929331Y-106374101D01*
X157950050Y-106354877D01*
X158108959Y-106155612D01*
X158236393Y-105934888D01*
X158329508Y-105697637D01*
X158386222Y-105449157D01*
X158405268Y-105195000D01*
X158397317Y-105088905D01*
X158387273Y-104954865D01*
X158386222Y-104940843D01*
X158329508Y-104692363D01*
X158236393Y-104455112D01*
X158108959Y-104234388D01*
X157950050Y-104035123D01*
X157929330Y-104015898D01*
X157893576Y-103955870D01*
X157895951Y-103886041D01*
X157929331Y-103834101D01*
X157950050Y-103814877D01*
X158108959Y-103615612D01*
X158236393Y-103394888D01*
X158329508Y-103157637D01*
X158386222Y-102909157D01*
X158405268Y-102655000D01*
X158403577Y-102632437D01*
X158386222Y-102400845D01*
X158377406Y-102362221D01*
X158329508Y-102152363D01*
X158236393Y-101915112D01*
X158108959Y-101694388D01*
X157950050Y-101495123D01*
X157929330Y-101475898D01*
X157893576Y-101415870D01*
X157895951Y-101346041D01*
X157929331Y-101294101D01*
X157950050Y-101274877D01*
X158108959Y-101075612D01*
X158236393Y-100854888D01*
X158329508Y-100617637D01*
X158331087Y-100610714D01*
X158364297Y-100550621D01*
X162777140Y-96137781D01*
X162886632Y-95973914D01*
X162962052Y-95791835D01*
X163000501Y-95598540D01*
X163000501Y-95401459D01*
X163000501Y-95396349D01*
X163000500Y-95396323D01*
X163000500Y-83401456D01*
X162962052Y-83208170D01*
X162962051Y-83208169D01*
X162962051Y-83208165D01*
X162962049Y-83208160D01*
X162886635Y-83026092D01*
X162886628Y-83026079D01*
X162777140Y-82862219D01*
X162759449Y-82844528D01*
X162637782Y-82722861D01*
X162637781Y-82722860D01*
X159284208Y-79369288D01*
X159284206Y-79369285D01*
X159284206Y-79369286D01*
X159277139Y-79362219D01*
X159277139Y-79362218D01*
X159137782Y-79222861D01*
X159137781Y-79222860D01*
X159137780Y-79222859D01*
X158973920Y-79113371D01*
X158973907Y-79113364D01*
X158822137Y-79050500D01*
X158791837Y-79037949D01*
X158791829Y-79037947D01*
X158695188Y-79018724D01*
X158598544Y-78999500D01*
X158598541Y-78999500D01*
X138965783Y-78999500D01*
X138898744Y-78979815D01*
X138878102Y-78963181D01*
X119989209Y-60074289D01*
X119989206Y-60074285D01*
X119989206Y-60074286D01*
X119982139Y-60067219D01*
X119982139Y-60067218D01*
X119842782Y-59927861D01*
X119842781Y-59927860D01*
X119842780Y-59927859D01*
X119678920Y-59818371D01*
X119678911Y-59818366D01*
X119595683Y-59783892D01*
X119550165Y-59765038D01*
X119523500Y-59753993D01*
X119496837Y-59742949D01*
X119496833Y-59742948D01*
X119371037Y-59717926D01*
X119303543Y-59704500D01*
X119303541Y-59704500D01*
X115716698Y-59704500D01*
X115649659Y-59684815D01*
X115622411Y-59661034D01*
X115574759Y-59605241D01*
X115574756Y-59605239D01*
X115574755Y-59605237D01*
X115485832Y-59529290D01*
X115447638Y-59470784D01*
X115447139Y-59400916D01*
X115484493Y-59341869D01*
X115485832Y-59340710D01*
X115517276Y-59313853D01*
X115574759Y-59264759D01*
X115733259Y-59079179D01*
X115860777Y-58871089D01*
X115954172Y-58645612D01*
X116011146Y-58408302D01*
X116030294Y-58165000D01*
X116011146Y-57921698D01*
X115954172Y-57684388D01*
X115938755Y-57647168D01*
X115860777Y-57458910D01*
X115733262Y-57250826D01*
X115733261Y-57250823D01*
X115574756Y-57065238D01*
X115485832Y-56989290D01*
X115447638Y-56930784D01*
X115447139Y-56860916D01*
X115484493Y-56801869D01*
X115485832Y-56800710D01*
X115553941Y-56742539D01*
X115574759Y-56724759D01*
X115733259Y-56539179D01*
X115860777Y-56331089D01*
X115954172Y-56105612D01*
X116011146Y-55868302D01*
X116030294Y-55625000D01*
X116011146Y-55381698D01*
X115954172Y-55144388D01*
X115914506Y-55048625D01*
X115860777Y-54918910D01*
X115733262Y-54710826D01*
X115733261Y-54710823D01*
X115697453Y-54668897D01*
X115574759Y-54525241D01*
X115434575Y-54405513D01*
X115389176Y-54366738D01*
X115389173Y-54366737D01*
X115181089Y-54239222D01*
X114955618Y-54145830D01*
X114955621Y-54145830D01*
X114849992Y-54120470D01*
X114718302Y-54088854D01*
X114718300Y-54088853D01*
X114718297Y-54088853D01*
X114475000Y-54069706D01*
X114231702Y-54088853D01*
X113994380Y-54145830D01*
X113768910Y-54239222D01*
X113560826Y-54366737D01*
X113560823Y-54366738D01*
X113375241Y-54525241D01*
X113216738Y-54710823D01*
X113216737Y-54710826D01*
X113089222Y-54918910D01*
X112995830Y-55144380D01*
X112938853Y-55381702D01*
X112919706Y-55625000D01*
X112938853Y-55868297D01*
X112938853Y-55868300D01*
X112938854Y-55868302D01*
X112960963Y-55960393D01*
X112995830Y-56105619D01*
X113089222Y-56331089D01*
X113216737Y-56539173D01*
X113216738Y-56539176D01*
X113216741Y-56539179D01*
X113375241Y-56724759D01*
X113442348Y-56782074D01*
X113464168Y-56800710D01*
X113502361Y-56859217D01*
X113502859Y-56929085D01*
X113465505Y-56988131D01*
X113464168Y-56989290D01*
X113375241Y-57065241D01*
X113216738Y-57250823D01*
X113216737Y-57250826D01*
X113089222Y-57458910D01*
X112995830Y-57684380D01*
X112938853Y-57921702D01*
X112919706Y-58165000D01*
X112938853Y-58408297D01*
X112938853Y-58408300D01*
X112938854Y-58408302D01*
X112990352Y-58622804D01*
X112995830Y-58645619D01*
X113089222Y-58871089D01*
X113216737Y-59079173D01*
X113216738Y-59079176D01*
X113216741Y-59079179D01*
X113375241Y-59264759D01*
X113443250Y-59322844D01*
X113464168Y-59340710D01*
X113502361Y-59399217D01*
X113502859Y-59469085D01*
X113465505Y-59528131D01*
X113464168Y-59529290D01*
X113375241Y-59605241D01*
X113216738Y-59790823D01*
X113216737Y-59790826D01*
X113089222Y-59998910D01*
X112995830Y-60224380D01*
X112938853Y-60461702D01*
X112919706Y-60705000D01*
X112938853Y-60948297D01*
X112995830Y-61185619D01*
X113089222Y-61411089D01*
X113216737Y-61619173D01*
X113216738Y-61619176D01*
X113216741Y-61619179D01*
X113375241Y-61804759D01*
X113443250Y-61862844D01*
X113464168Y-61880710D01*
X113502361Y-61939217D01*
X113502859Y-62009085D01*
X113465505Y-62068131D01*
X113464168Y-62069290D01*
X113375241Y-62145241D01*
X113216738Y-62330823D01*
X113216737Y-62330826D01*
X113089222Y-62538910D01*
X112995830Y-62764380D01*
X112995828Y-62764387D01*
X112995828Y-62764388D01*
X112964836Y-62893477D01*
X112938853Y-63001702D01*
X112919706Y-63245000D01*
X112938853Y-63488297D01*
X112938853Y-63488300D01*
X112938854Y-63488302D01*
X112974198Y-63635519D01*
X112995830Y-63725619D01*
X113089222Y-63951089D01*
X113216737Y-64159173D01*
X113216738Y-64159176D01*
X113216741Y-64159179D01*
X113375241Y-64344759D01*
X113518897Y-64467453D01*
X113560823Y-64503261D01*
X113560826Y-64503262D01*
X113768910Y-64630777D01*
X113994381Y-64724169D01*
X113994378Y-64724169D01*
X113994384Y-64724170D01*
X113994388Y-64724172D01*
X114231698Y-64781146D01*
X114475000Y-64800294D01*
X114718302Y-64781146D01*
X114955612Y-64724172D01*
X115181089Y-64630777D01*
X115389179Y-64503259D01*
X115574759Y-64344759D01*
X115622409Y-64288967D01*
X115680914Y-64250776D01*
X115716698Y-64245500D01*
X118279218Y-64245500D01*
X118346257Y-64265185D01*
X118366898Y-64281818D01*
X136722860Y-82637781D01*
X136722861Y-82637782D01*
X136862218Y-82777139D01*
X137026086Y-82886632D01*
X137132745Y-82930811D01*
X137208164Y-82962051D01*
X137401454Y-83000499D01*
X137401457Y-83000500D01*
X137401459Y-83000500D01*
X157534218Y-83000500D01*
X157601257Y-83020185D01*
X157621899Y-83036819D01*
X159463181Y-84878101D01*
X159496666Y-84939424D01*
X159499500Y-84965782D01*
X159499500Y-90034218D01*
X159479815Y-90101257D01*
X159463181Y-90121899D01*
X158181223Y-91403856D01*
X158119900Y-91437341D01*
X158050208Y-91432357D01*
X157996596Y-91393489D01*
X157972519Y-91363298D01*
X157950050Y-91335123D01*
X157929330Y-91315898D01*
X157893576Y-91255870D01*
X157895951Y-91186041D01*
X157929331Y-91134101D01*
X157950050Y-91114877D01*
X158108959Y-90915612D01*
X158236393Y-90694888D01*
X158329508Y-90457637D01*
X158386222Y-90209157D01*
X158399332Y-90034218D01*
X158405268Y-89955004D01*
X158405268Y-89954995D01*
X158386222Y-89700845D01*
X158347227Y-89529998D01*
X158329508Y-89452363D01*
X158236393Y-89215112D01*
X158108959Y-88994388D01*
X157950050Y-88795123D01*
X157763217Y-88621768D01*
X157552634Y-88478195D01*
X157552630Y-88478193D01*
X157552627Y-88478191D01*
X157552626Y-88478190D01*
X157323006Y-88367612D01*
X157323008Y-88367612D01*
X157116509Y-88303915D01*
X157058250Y-88265344D01*
X157030092Y-88201400D01*
X157040976Y-88132383D01*
X157087445Y-88080206D01*
X157091011Y-88078065D01*
X157254612Y-87983611D01*
X157436661Y-87843919D01*
X157436665Y-87843914D01*
X157436670Y-87843911D01*
X157598911Y-87681670D01*
X157598914Y-87681665D01*
X157598919Y-87681661D01*
X157738611Y-87499612D01*
X157853344Y-87300888D01*
X157941158Y-87088887D01*
X158000548Y-86867238D01*
X158030500Y-86639734D01*
X158030500Y-86410266D01*
X158000548Y-86182762D01*
X157941158Y-85961113D01*
X157853344Y-85749112D01*
X157738611Y-85550388D01*
X157738608Y-85550385D01*
X157738607Y-85550382D01*
X157598918Y-85368338D01*
X157598911Y-85368330D01*
X157436670Y-85206089D01*
X157436661Y-85206081D01*
X157254617Y-85066392D01*
X157055890Y-84951657D01*
X157055876Y-84951650D01*
X156843887Y-84863842D01*
X156622238Y-84804452D01*
X156584215Y-84799446D01*
X156394741Y-84774500D01*
X156394734Y-84774500D01*
X156165266Y-84774500D01*
X156165258Y-84774500D01*
X155948715Y-84803009D01*
X155937762Y-84804452D01*
X155844076Y-84829554D01*
X155716112Y-84863842D01*
X155504123Y-84951650D01*
X155504109Y-84951657D01*
X155305382Y-85066392D01*
X155123338Y-85206081D01*
X154961081Y-85368338D01*
X154821392Y-85550382D01*
X154706657Y-85749109D01*
X154706650Y-85749123D01*
X154618842Y-85961112D01*
X154559453Y-86182759D01*
X154559451Y-86182770D01*
X154529500Y-86410258D01*
X154529500Y-86639741D01*
X154554446Y-86829215D01*
X154559452Y-86867238D01*
X154559453Y-86867240D01*
X154618842Y-87088887D01*
X154706650Y-87300876D01*
X154706657Y-87300890D01*
X154821392Y-87499617D01*
X154961081Y-87681661D01*
X154961089Y-87681670D01*
X155123330Y-87843911D01*
X155123338Y-87843918D01*
X155305382Y-87983607D01*
X155305385Y-87983608D01*
X155305388Y-87983611D01*
X155504112Y-88098344D01*
X155504117Y-88098346D01*
X155504123Y-88098349D01*
X155552898Y-88118552D01*
X155716113Y-88186158D01*
X155867274Y-88226661D01*
X155926931Y-88263023D01*
X155957461Y-88325870D01*
X155949167Y-88395246D01*
X155904682Y-88449124D01*
X155888981Y-88458153D01*
X155847375Y-88478190D01*
X155847372Y-88478191D01*
X155636782Y-88621768D01*
X155449952Y-88795121D01*
X155449950Y-88795123D01*
X155291041Y-88994388D01*
X155163608Y-89215109D01*
X155070492Y-89452362D01*
X155070490Y-89452369D01*
X155013777Y-89700845D01*
X154994732Y-89954995D01*
X154994732Y-89955004D01*
X155013777Y-90209154D01*
X155013778Y-90209157D01*
X155070492Y-90457637D01*
X155163607Y-90694888D01*
X155291041Y-90915612D01*
X155370301Y-91015000D01*
X155449954Y-91114882D01*
X155470669Y-91134103D01*
X155506422Y-91194132D01*
X155504046Y-91263961D01*
X155470669Y-91315897D01*
X155449954Y-91335117D01*
X155291041Y-91534388D01*
X155163608Y-91755109D01*
X155070492Y-91992362D01*
X155070490Y-91992369D01*
X155013777Y-92240845D01*
X154994732Y-92494995D01*
X154994732Y-92495004D01*
X155013777Y-92749154D01*
X155013778Y-92749157D01*
X155070492Y-92997637D01*
X155163607Y-93234888D01*
X155291041Y-93455612D01*
X155449949Y-93654876D01*
X155449954Y-93654882D01*
X155470669Y-93674103D01*
X155506422Y-93734132D01*
X155504046Y-93803961D01*
X155470669Y-93855897D01*
X155449954Y-93875117D01*
X155291041Y-94074388D01*
X155163608Y-94295109D01*
X155070492Y-94532362D01*
X155070490Y-94532369D01*
X155013777Y-94780845D01*
X154994732Y-95034995D01*
X154994732Y-95035004D01*
X155013777Y-95289154D01*
X155013778Y-95289157D01*
X155070492Y-95537637D01*
X155163607Y-95774888D01*
X155291041Y-95995612D01*
X155404420Y-96137784D01*
X155449954Y-96194882D01*
X155470669Y-96214103D01*
X155506422Y-96274132D01*
X155504046Y-96343961D01*
X155470669Y-96395897D01*
X155449954Y-96415117D01*
X155291041Y-96614388D01*
X155163608Y-96835109D01*
X155070492Y-97072362D01*
X155070490Y-97072369D01*
X155013777Y-97320845D01*
X154994732Y-97574995D01*
X154994732Y-97575004D01*
X155013777Y-97829154D01*
X155013778Y-97829157D01*
X155070492Y-98077637D01*
X155163607Y-98314888D01*
X155291041Y-98535612D01*
X155410530Y-98685446D01*
X155449954Y-98734882D01*
X155470669Y-98754103D01*
X155506422Y-98814132D01*
X155504046Y-98883961D01*
X155470669Y-98935897D01*
X155449954Y-98955117D01*
X155291041Y-99154388D01*
X155163608Y-99375109D01*
X155070492Y-99612362D01*
X155070490Y-99612369D01*
X155013777Y-99860844D01*
X154994732Y-100114995D01*
X154994732Y-100115004D01*
X155013777Y-100369154D01*
X155055195Y-100550619D01*
X155070492Y-100617637D01*
X155163607Y-100854888D01*
X155291041Y-101075612D01*
X155449949Y-101274876D01*
X155449954Y-101274882D01*
X155470669Y-101294103D01*
X155506422Y-101354132D01*
X155504046Y-101423961D01*
X155470669Y-101475897D01*
X155449954Y-101495117D01*
X155291041Y-101694388D01*
X155163608Y-101915109D01*
X155070492Y-102152362D01*
X155070490Y-102152369D01*
X155013777Y-102400845D01*
X154994732Y-102654995D01*
X154994732Y-102655004D01*
X155013777Y-102909154D01*
X155070490Y-103157630D01*
X155070492Y-103157637D01*
X155163608Y-103394890D01*
X155190536Y-103441531D01*
X155291041Y-103615612D01*
X155423302Y-103781462D01*
X155449954Y-103814882D01*
X155470669Y-103834103D01*
X155506422Y-103894132D01*
X155504046Y-103963961D01*
X155470669Y-104015897D01*
X155449954Y-104035117D01*
X155291041Y-104234388D01*
X155163608Y-104455109D01*
X155070492Y-104692362D01*
X155070490Y-104692369D01*
X155013777Y-104940845D01*
X154994732Y-105194995D01*
X154994732Y-105195004D01*
X155013777Y-105449154D01*
X155013778Y-105449157D01*
X155070492Y-105697637D01*
X155163607Y-105934888D01*
X155291041Y-106155612D01*
X155407429Y-106301557D01*
X155449954Y-106354882D01*
X155470669Y-106374103D01*
X155506422Y-106434132D01*
X155504046Y-106503961D01*
X155470669Y-106555897D01*
X155449954Y-106575117D01*
X155291041Y-106774388D01*
X155163608Y-106995109D01*
X155070492Y-107232362D01*
X155070490Y-107232369D01*
X155013777Y-107480845D01*
X154994732Y-107734995D01*
X154994732Y-107735004D01*
X155013777Y-107989154D01*
X155024656Y-108036819D01*
X155070492Y-108237637D01*
X155163607Y-108474888D01*
X155291041Y-108695612D01*
X155449949Y-108894876D01*
X155449954Y-108894882D01*
X155470669Y-108914103D01*
X155506422Y-108974132D01*
X155504046Y-109043961D01*
X155470669Y-109095897D01*
X155449954Y-109115117D01*
X155291041Y-109314388D01*
X155163608Y-109535109D01*
X155070492Y-109772362D01*
X155070490Y-109772369D01*
X155013777Y-110020845D01*
X154994732Y-110274995D01*
X154994732Y-110275004D01*
X155013777Y-110529154D01*
X155013778Y-110529157D01*
X155070492Y-110777637D01*
X155163607Y-111014888D01*
X155291041Y-111235612D01*
X155449949Y-111434876D01*
X155449954Y-111434882D01*
X155470669Y-111454103D01*
X155506422Y-111514132D01*
X155504046Y-111583961D01*
X155470669Y-111635897D01*
X155449954Y-111655117D01*
X155291041Y-111854388D01*
X155163608Y-112075109D01*
X155070492Y-112312362D01*
X155070490Y-112312369D01*
X155013777Y-112560845D01*
X154994732Y-112814995D01*
X154994732Y-112815004D01*
X155013777Y-113069154D01*
X155057940Y-113262647D01*
X155070492Y-113317637D01*
X155163607Y-113554888D01*
X155291041Y-113775612D01*
X155448645Y-113973240D01*
X155449954Y-113974882D01*
X155470669Y-113994103D01*
X155506422Y-114054132D01*
X155504046Y-114123961D01*
X155470669Y-114175897D01*
X155449954Y-114195117D01*
X155360083Y-114307813D01*
X155302894Y-114347953D01*
X155263136Y-114354500D01*
X147046456Y-114354500D01*
X146853171Y-114392947D01*
X146853163Y-114392949D01*
X146780103Y-114423212D01*
X146671083Y-114468369D01*
X146507222Y-114577857D01*
X146507214Y-114577863D01*
X134121899Y-126963181D01*
X134060576Y-126996666D01*
X134034218Y-126999500D01*
X132516136Y-126999500D01*
X132449097Y-126979815D01*
X132403342Y-126927011D01*
X132393398Y-126857853D01*
X132422423Y-126794297D01*
X132431795Y-126784601D01*
X132550050Y-126674877D01*
X132708959Y-126475612D01*
X132836393Y-126254888D01*
X132929508Y-126017637D01*
X132986222Y-125769157D01*
X132999001Y-125598630D01*
X133005268Y-125515004D01*
X133005268Y-125514995D01*
X132986222Y-125260845D01*
X132954508Y-125121899D01*
X132929508Y-125012363D01*
X132836393Y-124775112D01*
X132708959Y-124554388D01*
X132550050Y-124355123D01*
X132363217Y-124181768D01*
X132152634Y-124038195D01*
X132152630Y-124038193D01*
X132152627Y-124038191D01*
X132152626Y-124038190D01*
X131923006Y-123927612D01*
X131923008Y-123927612D01*
X131679466Y-123852489D01*
X131679462Y-123852488D01*
X131679458Y-123852487D01*
X131558231Y-123834214D01*
X131427440Y-123814500D01*
X131427435Y-123814500D01*
X131172565Y-123814500D01*
X131172559Y-123814500D01*
X131015609Y-123838157D01*
X130920542Y-123852487D01*
X130920539Y-123852488D01*
X130920533Y-123852489D01*
X130676992Y-123927612D01*
X130447373Y-124038190D01*
X130447372Y-124038191D01*
X130447366Y-124038194D01*
X130447366Y-124038195D01*
X130422639Y-124055053D01*
X130236782Y-124181768D01*
X130129406Y-124281399D01*
X130066874Y-124312567D01*
X130045065Y-124314500D01*
X127563626Y-124314500D01*
X127496587Y-124294815D01*
X127475945Y-124278181D01*
X127285444Y-124087680D01*
X127251959Y-124026357D01*
X127256943Y-123956665D01*
X127285442Y-123912320D01*
X127580369Y-123617393D01*
X127615641Y-123592696D01*
X127627639Y-123587102D01*
X127806877Y-123461598D01*
X127961598Y-123306877D01*
X128087102Y-123127639D01*
X128179575Y-122929330D01*
X128236207Y-122717977D01*
X128255277Y-122500000D01*
X128236207Y-122282023D01*
X128179575Y-122070670D01*
X128087102Y-121872362D01*
X128057875Y-121830621D01*
X128035549Y-121764418D01*
X128052559Y-121696651D01*
X128103507Y-121648837D01*
X128159451Y-121635500D01*
X130045065Y-121635500D01*
X130112104Y-121655185D01*
X130129403Y-121668599D01*
X130236783Y-121768232D01*
X130447366Y-121911805D01*
X130447371Y-121911807D01*
X130447372Y-121911808D01*
X130447373Y-121911809D01*
X130569328Y-121970538D01*
X130676992Y-122022387D01*
X130676993Y-122022387D01*
X130676996Y-122022389D01*
X130920542Y-122097513D01*
X131172565Y-122135500D01*
X131427435Y-122135500D01*
X131679458Y-122097513D01*
X131923004Y-122022389D01*
X132152634Y-121911805D01*
X132363217Y-121768232D01*
X132550050Y-121594877D01*
X132708959Y-121395612D01*
X132836393Y-121174888D01*
X132929508Y-120937637D01*
X132986222Y-120689157D01*
X133005268Y-120435000D01*
X133002982Y-120404500D01*
X132986222Y-120180845D01*
X132929509Y-119932369D01*
X132929508Y-119932363D01*
X132836393Y-119695112D01*
X132708959Y-119474388D01*
X132550050Y-119275123D01*
X132529330Y-119255898D01*
X132493576Y-119195870D01*
X132495951Y-119126041D01*
X132529331Y-119074101D01*
X132550050Y-119054877D01*
X132708959Y-118855612D01*
X132836393Y-118634888D01*
X132929508Y-118397637D01*
X132986222Y-118149157D01*
X133005268Y-117895000D01*
X132986222Y-117640843D01*
X132929508Y-117392363D01*
X132836393Y-117155112D01*
X132708959Y-116934388D01*
X132550050Y-116735123D01*
X132529330Y-116715898D01*
X132493576Y-116655870D01*
X132495951Y-116586041D01*
X132529331Y-116534101D01*
X132550050Y-116514877D01*
X132708959Y-116315612D01*
X132836393Y-116094888D01*
X132929508Y-115857637D01*
X132986222Y-115609157D01*
X133005268Y-115355000D01*
X132986222Y-115100843D01*
X132929508Y-114852363D01*
X132836393Y-114615112D01*
X132708959Y-114394388D01*
X132550050Y-114195123D01*
X132529330Y-114175898D01*
X132493576Y-114115870D01*
X132495951Y-114046041D01*
X132529331Y-113994101D01*
X132550050Y-113974877D01*
X132708959Y-113775612D01*
X132836393Y-113554888D01*
X132929508Y-113317637D01*
X132986222Y-113069157D01*
X133005268Y-112815000D01*
X132986222Y-112560843D01*
X132929508Y-112312363D01*
X132836393Y-112075112D01*
X132708959Y-111854388D01*
X132550050Y-111655123D01*
X132529330Y-111635898D01*
X132493576Y-111575870D01*
X132495951Y-111506041D01*
X132529331Y-111454101D01*
X132550050Y-111434877D01*
X132708959Y-111235612D01*
X132836393Y-111014888D01*
X132929508Y-110777637D01*
X132986222Y-110529157D01*
X133005268Y-110275000D01*
X133003639Y-110253265D01*
X132991322Y-110088903D01*
X132986222Y-110020843D01*
X132929508Y-109772363D01*
X132836393Y-109535112D01*
X132708959Y-109314388D01*
X132550050Y-109115123D01*
X132529330Y-109095898D01*
X132493576Y-109035870D01*
X132495951Y-108966041D01*
X132529331Y-108914101D01*
X132550050Y-108894877D01*
X132708959Y-108695612D01*
X132836393Y-108474888D01*
X132929508Y-108237637D01*
X132986222Y-107989157D01*
X133002110Y-107777140D01*
X133005268Y-107735004D01*
X133005268Y-107734995D01*
X132986222Y-107480845D01*
X132955338Y-107345535D01*
X132929508Y-107232363D01*
X132836393Y-106995112D01*
X132708959Y-106774388D01*
X132550050Y-106575123D01*
X132529330Y-106555898D01*
X132493576Y-106495870D01*
X132495951Y-106426041D01*
X132529331Y-106374101D01*
X132550050Y-106354877D01*
X132708959Y-106155612D01*
X132836393Y-105934888D01*
X132929508Y-105697637D01*
X132986222Y-105449157D01*
X133005268Y-105195000D01*
X132997317Y-105088905D01*
X132987273Y-104954865D01*
X132986222Y-104940843D01*
X132929508Y-104692363D01*
X132836393Y-104455112D01*
X132708959Y-104234388D01*
X132550050Y-104035123D01*
X132529330Y-104015898D01*
X132493576Y-103955870D01*
X132495951Y-103886041D01*
X132529331Y-103834101D01*
X132550050Y-103814877D01*
X132708959Y-103615612D01*
X132836393Y-103394888D01*
X132929508Y-103157637D01*
X132986222Y-102909157D01*
X133005268Y-102655000D01*
X133003577Y-102632437D01*
X132986222Y-102400845D01*
X132977406Y-102362221D01*
X132929508Y-102152363D01*
X132836393Y-101915112D01*
X132708959Y-101694388D01*
X132550050Y-101495123D01*
X132529330Y-101475898D01*
X132493576Y-101415870D01*
X132495951Y-101346041D01*
X132529331Y-101294101D01*
X132550050Y-101274877D01*
X132708959Y-101075612D01*
X132836393Y-100854888D01*
X132929508Y-100617637D01*
X132986222Y-100369157D01*
X132999230Y-100195579D01*
X133005268Y-100115004D01*
X133005268Y-100114995D01*
X132986222Y-99860844D01*
X132986223Y-99860844D01*
X132929509Y-99612369D01*
X132929508Y-99612363D01*
X132836393Y-99375112D01*
X132708959Y-99154388D01*
X132550050Y-98955123D01*
X132529330Y-98935898D01*
X132493576Y-98875870D01*
X132495951Y-98806041D01*
X132529331Y-98754101D01*
X132550050Y-98734877D01*
X132708959Y-98535612D01*
X132836393Y-98314888D01*
X132929508Y-98077637D01*
X132986222Y-97829157D01*
X133005268Y-97575000D01*
X133000387Y-97509870D01*
X132986222Y-97320845D01*
X132969918Y-97249414D01*
X132929508Y-97072363D01*
X132836393Y-96835112D01*
X132708959Y-96614388D01*
X132550050Y-96415123D01*
X132529330Y-96395898D01*
X132493576Y-96335870D01*
X132495951Y-96266041D01*
X132529331Y-96214101D01*
X132532767Y-96210913D01*
X132550050Y-96194877D01*
X132708959Y-95995612D01*
X132836393Y-95774888D01*
X132929508Y-95537637D01*
X132986222Y-95289157D01*
X133005268Y-95035000D01*
X133005209Y-95034217D01*
X132986222Y-94780845D01*
X132929509Y-94532369D01*
X132929508Y-94532363D01*
X132836393Y-94295112D01*
X132708959Y-94074388D01*
X132550050Y-93875123D01*
X132529330Y-93855898D01*
X132493576Y-93795870D01*
X132495951Y-93726041D01*
X132529331Y-93674101D01*
X132550050Y-93654877D01*
X132708959Y-93455612D01*
X132836393Y-93234888D01*
X132929508Y-92997637D01*
X132986222Y-92749157D01*
X133005268Y-92495000D01*
X132986222Y-92240843D01*
X132929508Y-91992363D01*
X132836393Y-91755112D01*
X132708959Y-91534388D01*
X132550050Y-91335123D01*
X132529330Y-91315898D01*
X132493576Y-91255870D01*
X132495951Y-91186041D01*
X132529331Y-91134101D01*
X132550050Y-91114877D01*
X132629699Y-91015000D01*
X135220000Y-91015000D01*
X152910000Y-91015000D01*
X152910000Y-84525000D01*
X135220000Y-84525000D01*
X135220000Y-91015000D01*
X132629699Y-91015000D01*
X132708959Y-90915612D01*
X132836393Y-90694888D01*
X132929508Y-90457637D01*
X132986222Y-90209157D01*
X132999332Y-90034218D01*
X133005268Y-89955004D01*
X133005268Y-89954995D01*
X132986222Y-89700845D01*
X132947227Y-89529998D01*
X132929508Y-89452363D01*
X132836393Y-89215112D01*
X132708959Y-88994388D01*
X132550050Y-88795123D01*
X132363217Y-88621768D01*
X132152634Y-88478195D01*
X132152630Y-88478193D01*
X132152627Y-88478191D01*
X132152624Y-88478190D01*
X132128893Y-88466761D01*
X132077034Y-88419938D01*
X132058722Y-88352511D01*
X132079771Y-88285887D01*
X132133498Y-88241220D01*
X132150587Y-88235272D01*
X132333887Y-88186158D01*
X132545888Y-88098344D01*
X132744612Y-87983611D01*
X132926661Y-87843919D01*
X132926665Y-87843914D01*
X132926670Y-87843911D01*
X133088911Y-87681670D01*
X133088914Y-87681665D01*
X133088919Y-87681661D01*
X133228611Y-87499612D01*
X133343344Y-87300888D01*
X133431158Y-87088887D01*
X133490548Y-86867238D01*
X133520500Y-86639734D01*
X133520500Y-86410266D01*
X133490548Y-86182762D01*
X133431158Y-85961113D01*
X133343344Y-85749112D01*
X133228611Y-85550388D01*
X133228608Y-85550385D01*
X133228607Y-85550382D01*
X133088918Y-85368338D01*
X133088911Y-85368330D01*
X132926670Y-85206089D01*
X132926661Y-85206081D01*
X132744617Y-85066392D01*
X132545890Y-84951657D01*
X132545876Y-84951650D01*
X132333887Y-84863842D01*
X132112238Y-84804452D01*
X132074215Y-84799446D01*
X131884741Y-84774500D01*
X131884734Y-84774500D01*
X131655266Y-84774500D01*
X131655258Y-84774500D01*
X131438715Y-84803009D01*
X131427762Y-84804452D01*
X131334076Y-84829554D01*
X131206112Y-84863842D01*
X130994123Y-84951650D01*
X130994109Y-84951657D01*
X130795382Y-85066392D01*
X130613338Y-85206081D01*
X130451081Y-85368338D01*
X130311392Y-85550382D01*
X130196657Y-85749109D01*
X130196650Y-85749123D01*
X130108842Y-85961112D01*
X130049453Y-86182759D01*
X130049451Y-86182770D01*
X130019500Y-86410258D01*
X130019500Y-86639741D01*
X130044446Y-86829215D01*
X130049452Y-86867238D01*
X130049453Y-86867240D01*
X130108842Y-87088887D01*
X130196650Y-87300876D01*
X130196657Y-87300890D01*
X130311392Y-87499617D01*
X130451081Y-87681661D01*
X130451089Y-87681670D01*
X130613330Y-87843911D01*
X130613338Y-87843918D01*
X130795382Y-87983607D01*
X130795385Y-87983608D01*
X130795388Y-87983611D01*
X130941529Y-88067985D01*
X130989745Y-88118552D01*
X131002968Y-88187159D01*
X130977000Y-88252024D01*
X130920085Y-88292552D01*
X130916079Y-88293863D01*
X130676992Y-88367612D01*
X130447373Y-88478190D01*
X130447372Y-88478191D01*
X130236782Y-88621768D01*
X130049952Y-88795121D01*
X130049950Y-88795123D01*
X129891041Y-88994388D01*
X129763608Y-89215109D01*
X129670492Y-89452362D01*
X129670490Y-89452369D01*
X129613777Y-89700845D01*
X129594732Y-89954995D01*
X129594732Y-89955004D01*
X129613777Y-90209154D01*
X129613778Y-90209157D01*
X129670492Y-90457637D01*
X129763607Y-90694888D01*
X129891041Y-90915612D01*
X129970301Y-91015000D01*
X130049954Y-91114882D01*
X130070669Y-91134103D01*
X130106422Y-91194132D01*
X130104046Y-91263961D01*
X130070669Y-91315897D01*
X130049954Y-91335117D01*
X129891041Y-91534388D01*
X129763608Y-91755109D01*
X129670492Y-91992362D01*
X129670490Y-91992369D01*
X129613777Y-92240845D01*
X129594732Y-92494995D01*
X129594732Y-92495004D01*
X129613777Y-92749154D01*
X129613778Y-92749157D01*
X129670492Y-92997637D01*
X129763607Y-93234888D01*
X129891041Y-93455612D01*
X130049949Y-93654876D01*
X130049954Y-93654882D01*
X130070669Y-93674103D01*
X130106422Y-93734132D01*
X130104046Y-93803961D01*
X130070669Y-93855897D01*
X130049954Y-93875117D01*
X129891041Y-94074388D01*
X129763608Y-94295109D01*
X129670492Y-94532362D01*
X129670490Y-94532369D01*
X129613777Y-94780845D01*
X129594732Y-95034995D01*
X129594732Y-95035004D01*
X129613777Y-95289154D01*
X129613778Y-95289157D01*
X129670492Y-95537637D01*
X129763607Y-95774888D01*
X129891041Y-95995612D01*
X130004420Y-96137784D01*
X130049954Y-96194882D01*
X130070669Y-96214103D01*
X130106422Y-96274132D01*
X130104046Y-96343961D01*
X130070669Y-96395897D01*
X130049954Y-96415117D01*
X129891041Y-96614388D01*
X129763608Y-96835109D01*
X129670492Y-97072362D01*
X129670490Y-97072369D01*
X129613777Y-97320845D01*
X129594732Y-97574995D01*
X129594732Y-97575004D01*
X129613777Y-97829154D01*
X129613778Y-97829157D01*
X129670492Y-98077637D01*
X129763607Y-98314888D01*
X129891041Y-98535612D01*
X130010530Y-98685446D01*
X130049954Y-98734882D01*
X130070669Y-98754103D01*
X130106422Y-98814132D01*
X130104046Y-98883961D01*
X130070669Y-98935897D01*
X130049954Y-98955117D01*
X129891041Y-99154388D01*
X129763608Y-99375109D01*
X129670492Y-99612362D01*
X129670490Y-99612369D01*
X129613777Y-99860844D01*
X129594732Y-100114995D01*
X129594732Y-100115004D01*
X129613777Y-100369154D01*
X129655195Y-100550619D01*
X129670492Y-100617637D01*
X129763607Y-100854888D01*
X129891041Y-101075612D01*
X130049949Y-101274876D01*
X130049954Y-101274882D01*
X130070669Y-101294103D01*
X130106422Y-101354132D01*
X130104046Y-101423961D01*
X130070669Y-101475897D01*
X130049954Y-101495117D01*
X129891041Y-101694388D01*
X129763608Y-101915109D01*
X129670492Y-102152362D01*
X129670490Y-102152369D01*
X129613777Y-102400845D01*
X129594732Y-102654995D01*
X129594732Y-102655004D01*
X129613777Y-102909154D01*
X129670490Y-103157630D01*
X129670492Y-103157637D01*
X129763608Y-103394890D01*
X129790536Y-103441531D01*
X129891041Y-103615612D01*
X130023302Y-103781462D01*
X130049954Y-103814882D01*
X130070669Y-103834103D01*
X130106422Y-103894132D01*
X130104046Y-103963961D01*
X130070669Y-104015897D01*
X130049954Y-104035117D01*
X129960083Y-104147813D01*
X129902894Y-104187953D01*
X129863136Y-104194500D01*
X127867535Y-104194500D01*
X127800496Y-104174815D01*
X127754741Y-104122011D01*
X127744797Y-104052853D01*
X127773822Y-103989297D01*
X127796408Y-103968928D01*
X127806877Y-103961598D01*
X127961598Y-103806877D01*
X128087102Y-103627639D01*
X128179575Y-103429330D01*
X128236207Y-103217977D01*
X128255277Y-103000000D01*
X128236207Y-102782023D01*
X128204724Y-102664529D01*
X128200500Y-102632437D01*
X128200500Y-83905513D01*
X128170940Y-83718881D01*
X128112545Y-83539163D01*
X128081423Y-83478083D01*
X128026760Y-83370801D01*
X127955561Y-83272804D01*
X127919275Y-83222860D01*
X127919274Y-83222859D01*
X127915692Y-83217929D01*
X127915690Y-83217926D01*
X127915686Y-83217922D01*
X127915681Y-83217916D01*
X118172074Y-73474310D01*
X115736819Y-71039055D01*
X115703334Y-70977732D01*
X115700500Y-70951374D01*
X115700500Y-70405513D01*
X115677027Y-70257313D01*
X115675500Y-70237915D01*
X115675500Y-69851601D01*
X115695185Y-69784562D01*
X115735348Y-69745485D01*
X115760185Y-69730472D01*
X115880472Y-69610185D01*
X115968478Y-69464606D01*
X116019086Y-69302196D01*
X116025500Y-69231616D01*
X116025500Y-67418384D01*
X116019086Y-67347804D01*
X115968478Y-67185394D01*
X115880472Y-67039815D01*
X115880470Y-67039813D01*
X115880469Y-67039811D01*
X115760188Y-66919530D01*
X115614606Y-66831522D01*
X115452196Y-66780914D01*
X115452194Y-66780913D01*
X115452192Y-66780913D01*
X115402778Y-66776423D01*
X115381616Y-66774500D01*
X113568384Y-66774500D01*
X113549145Y-66776248D01*
X113497807Y-66780913D01*
X113335393Y-66831522D01*
X113189811Y-66919530D01*
X113069531Y-67039810D01*
X113069528Y-67039814D01*
X113054514Y-67064651D01*
X113002986Y-67111838D01*
X112948398Y-67124500D01*
X112873625Y-67124500D01*
X112806586Y-67104815D01*
X112785944Y-67088181D01*
X111236819Y-65539055D01*
X111203334Y-65477732D01*
X111200500Y-65451374D01*
X111200500Y-54548626D01*
X111220185Y-54481587D01*
X111236819Y-54460945D01*
X112460945Y-53236819D01*
X112522268Y-53203334D01*
X112548626Y-53200500D01*
X115451374Y-53200500D01*
X115518413Y-53220185D01*
X115539055Y-53236819D01*
X117263181Y-54960944D01*
X117296666Y-55022267D01*
X117299500Y-55048625D01*
X117299500Y-56094486D01*
X117329059Y-56281118D01*
X117387454Y-56460836D01*
X117455377Y-56594141D01*
X117473240Y-56629199D01*
X117584310Y-56782074D01*
X138584310Y-77782073D01*
X138717927Y-77915690D01*
X138870801Y-78026760D01*
X138950347Y-78067290D01*
X139039163Y-78112545D01*
X139039165Y-78112545D01*
X139039168Y-78112547D01*
X139135497Y-78143846D01*
X139218881Y-78170940D01*
X139405514Y-78200500D01*
X139405519Y-78200500D01*
X159094486Y-78200500D01*
X159281118Y-78170940D01*
X159460832Y-78112547D01*
X159629199Y-78026760D01*
X159782074Y-77915690D01*
X161265690Y-76432074D01*
X161376760Y-76279199D01*
X161462547Y-76110832D01*
X161520940Y-75931118D01*
X161544904Y-75779815D01*
X161550500Y-75744487D01*
X161550500Y-75066605D01*
X161570185Y-74999566D01*
X161583270Y-74982622D01*
X161607079Y-74956759D01*
X161658073Y-74901365D01*
X161790638Y-74698459D01*
X161887998Y-74476500D01*
X161947497Y-74241545D01*
X161949454Y-74217926D01*
X161967512Y-74000005D01*
X161967512Y-73999994D01*
X161947498Y-73758463D01*
X161947496Y-73758451D01*
X161887998Y-73523501D01*
X161887996Y-73523497D01*
X161790638Y-73301541D01*
X161780122Y-73285445D01*
X161658075Y-73098637D01*
X161639408Y-73078359D01*
X161493919Y-72920316D01*
X161493914Y-72920312D01*
X161493912Y-72920310D01*
X161302661Y-72771453D01*
X161302650Y-72771446D01*
X161089499Y-72656095D01*
X161089496Y-72656094D01*
X161089493Y-72656092D01*
X161089487Y-72656090D01*
X161089485Y-72656089D01*
X160860256Y-72577393D01*
X160680952Y-72547473D01*
X160621186Y-72537500D01*
X160378814Y-72537500D01*
X160331000Y-72545478D01*
X160139743Y-72577393D01*
X159910514Y-72656089D01*
X159910500Y-72656095D01*
X159697349Y-72771446D01*
X159697338Y-72771453D01*
X159506087Y-72920310D01*
X159506084Y-72920313D01*
X159341924Y-73098637D01*
X159209361Y-73301541D01*
X159112001Y-73523501D01*
X159052503Y-73758451D01*
X159052501Y-73758463D01*
X159032488Y-73999994D01*
X159032488Y-74000005D01*
X159052501Y-74241536D01*
X159052503Y-74241548D01*
X159112001Y-74476497D01*
X159139056Y-74538176D01*
X159149500Y-74587986D01*
X159149500Y-75101374D01*
X159129815Y-75168413D01*
X159113181Y-75189055D01*
X158539055Y-75763181D01*
X158477732Y-75796666D01*
X158451374Y-75799500D01*
X140048625Y-75799500D01*
X139981586Y-75779815D01*
X139960944Y-75763181D01*
X122891150Y-58693386D01*
X129549500Y-58693386D01*
X129549500Y-62306613D01*
X129555913Y-62377192D01*
X129606522Y-62539606D01*
X129694530Y-62685188D01*
X129814811Y-62805469D01*
X129814813Y-62805470D01*
X129814815Y-62805472D01*
X129960394Y-62893478D01*
X130122804Y-62944086D01*
X130193384Y-62950500D01*
X132701374Y-62950500D01*
X132768413Y-62970185D01*
X132789055Y-62986819D01*
X144647926Y-74845690D01*
X144800801Y-74956760D01*
X144969168Y-75042547D01*
X145148882Y-75100940D01*
X145218870Y-75112025D01*
X145335513Y-75130500D01*
X145335518Y-75130500D01*
X145335519Y-75130500D01*
X146828801Y-75130500D01*
X146895840Y-75150185D01*
X146904959Y-75156643D01*
X146997347Y-75228552D01*
X147210507Y-75343908D01*
X147329544Y-75384774D01*
X147439743Y-75422606D01*
X147439745Y-75422606D01*
X147439747Y-75422607D01*
X147678814Y-75462500D01*
X147678815Y-75462500D01*
X147921185Y-75462500D01*
X147921186Y-75462500D01*
X148160253Y-75422607D01*
X148389493Y-75343908D01*
X148602653Y-75228552D01*
X148793919Y-75079684D01*
X148958073Y-74901365D01*
X149090638Y-74698459D01*
X149187998Y-74476500D01*
X149247497Y-74241545D01*
X149249454Y-74217926D01*
X149267512Y-74000005D01*
X149267512Y-73999994D01*
X153952488Y-73999994D01*
X153952488Y-74000005D01*
X153972501Y-74241536D01*
X153972503Y-74241548D01*
X154032001Y-74476498D01*
X154129361Y-74698458D01*
X154261924Y-74901362D01*
X154261927Y-74901365D01*
X154426081Y-75079684D01*
X154426084Y-75079686D01*
X154426087Y-75079689D01*
X154617338Y-75228546D01*
X154617345Y-75228550D01*
X154617347Y-75228552D01*
X154830507Y-75343908D01*
X154949544Y-75384774D01*
X155059743Y-75422606D01*
X155059745Y-75422606D01*
X155059747Y-75422607D01*
X155298814Y-75462500D01*
X155298815Y-75462500D01*
X155541185Y-75462500D01*
X155541186Y-75462500D01*
X155780253Y-75422607D01*
X156009493Y-75343908D01*
X156222653Y-75228552D01*
X156413919Y-75079684D01*
X156578073Y-74901365D01*
X156710638Y-74698459D01*
X156807998Y-74476500D01*
X156867497Y-74241545D01*
X156869454Y-74217926D01*
X156887512Y-74000005D01*
X156887512Y-73999994D01*
X156867498Y-73758463D01*
X156867496Y-73758451D01*
X156807998Y-73523501D01*
X156807996Y-73523497D01*
X156710638Y-73301541D01*
X156578073Y-73098635D01*
X156503268Y-73017375D01*
X156472348Y-72954721D01*
X156470500Y-72933394D01*
X156470500Y-66523711D01*
X176649500Y-66523711D01*
X176649500Y-66766288D01*
X176681161Y-67006785D01*
X176743947Y-67241104D01*
X176788144Y-67347804D01*
X176836776Y-67465212D01*
X176958064Y-67675289D01*
X176958066Y-67675292D01*
X176958067Y-67675293D01*
X177105733Y-67867736D01*
X177105739Y-67867743D01*
X177277256Y-68039260D01*
X177277262Y-68039265D01*
X177469711Y-68186936D01*
X177679788Y-68308224D01*
X177903900Y-68401054D01*
X178138211Y-68463838D01*
X178318586Y-68487584D01*
X178378711Y-68495500D01*
X178378712Y-68495500D01*
X178621289Y-68495500D01*
X178669388Y-68489167D01*
X178861789Y-68463838D01*
X179096100Y-68401054D01*
X179320212Y-68308224D01*
X179530289Y-68186936D01*
X179722738Y-68039265D01*
X179894265Y-67867738D01*
X180041936Y-67675289D01*
X180163224Y-67465212D01*
X180256054Y-67241100D01*
X180318838Y-67006789D01*
X180350500Y-66766288D01*
X180350500Y-66523712D01*
X180318838Y-66283211D01*
X180256054Y-66048900D01*
X180163224Y-65824788D01*
X180041936Y-65614711D01*
X179936829Y-65477732D01*
X179894266Y-65422263D01*
X179894260Y-65422256D01*
X179722743Y-65250739D01*
X179722736Y-65250733D01*
X179530293Y-65103067D01*
X179530292Y-65103066D01*
X179530289Y-65103064D01*
X179320212Y-64981776D01*
X179320205Y-64981773D01*
X179096104Y-64888947D01*
X178861785Y-64826161D01*
X178621289Y-64794500D01*
X178621288Y-64794500D01*
X178378712Y-64794500D01*
X178378711Y-64794500D01*
X178138214Y-64826161D01*
X177903895Y-64888947D01*
X177679794Y-64981773D01*
X177679785Y-64981777D01*
X177469706Y-65103067D01*
X177277263Y-65250733D01*
X177277256Y-65250739D01*
X177105739Y-65422256D01*
X177105733Y-65422263D01*
X176958067Y-65614706D01*
X176836777Y-65824785D01*
X176836773Y-65824794D01*
X176743947Y-66048895D01*
X176681161Y-66283214D01*
X176649500Y-66523711D01*
X156470500Y-66523711D01*
X156470500Y-64278625D01*
X156490185Y-64211586D01*
X156506819Y-64190944D01*
X161460944Y-59236819D01*
X161522267Y-59203334D01*
X161548625Y-59200500D01*
X175925500Y-59200500D01*
X175992539Y-59220185D01*
X176038294Y-59272989D01*
X176049500Y-59324500D01*
X176049500Y-59806613D01*
X176055913Y-59877192D01*
X176106522Y-60039606D01*
X176194530Y-60185188D01*
X176314811Y-60305469D01*
X176314813Y-60305470D01*
X176314815Y-60305472D01*
X176460394Y-60393478D01*
X176622804Y-60444086D01*
X176693384Y-60450500D01*
X176693387Y-60450500D01*
X180306613Y-60450500D01*
X180306616Y-60450500D01*
X180377196Y-60444086D01*
X180539606Y-60393478D01*
X180685185Y-60305472D01*
X180805472Y-60185185D01*
X180893478Y-60039606D01*
X180944086Y-59877196D01*
X180950500Y-59806616D01*
X180950500Y-56193384D01*
X180944086Y-56122804D01*
X180893478Y-55960394D01*
X180805472Y-55814815D01*
X180805470Y-55814813D01*
X180805469Y-55814811D01*
X180685188Y-55694530D01*
X180539606Y-55606522D01*
X180377196Y-55555914D01*
X180377194Y-55555913D01*
X180377192Y-55555913D01*
X180327778Y-55551423D01*
X180306616Y-55549500D01*
X176693384Y-55549500D01*
X176674145Y-55551248D01*
X176622807Y-55555913D01*
X176460393Y-55606522D01*
X176314811Y-55694530D01*
X176194530Y-55814811D01*
X176106522Y-55960393D01*
X176055913Y-56122807D01*
X176049500Y-56193386D01*
X176049500Y-56675500D01*
X176029815Y-56742539D01*
X175977011Y-56788294D01*
X175925500Y-56799500D01*
X160905514Y-56799500D01*
X160718881Y-56829059D01*
X160539163Y-56887454D01*
X160370800Y-56973240D01*
X160283579Y-57036610D01*
X160217927Y-57084310D01*
X160217925Y-57084312D01*
X160217924Y-57084312D01*
X154354312Y-62947923D01*
X154354312Y-62947924D01*
X154354310Y-62947926D01*
X154288250Y-63038848D01*
X154255220Y-63084311D01*
X154243243Y-63100794D01*
X154157454Y-63269163D01*
X154099059Y-63448881D01*
X154069500Y-63635513D01*
X154069500Y-73412012D01*
X154059056Y-73461821D01*
X154032003Y-73523497D01*
X154032001Y-73523501D01*
X153972503Y-73758451D01*
X153972501Y-73758463D01*
X153952488Y-73999994D01*
X149267512Y-73999994D01*
X149247498Y-73758463D01*
X149247496Y-73758451D01*
X149187998Y-73523501D01*
X149187996Y-73523497D01*
X149090638Y-73301541D01*
X149080122Y-73285445D01*
X148958075Y-73098637D01*
X148939408Y-73078359D01*
X148793919Y-72920316D01*
X148793914Y-72920312D01*
X148793912Y-72920310D01*
X148602661Y-72771453D01*
X148602650Y-72771446D01*
X148389499Y-72656095D01*
X148389496Y-72656094D01*
X148389493Y-72656092D01*
X148389487Y-72656090D01*
X148389485Y-72656089D01*
X148160256Y-72577393D01*
X147980952Y-72547473D01*
X147921186Y-72537500D01*
X147678814Y-72537500D01*
X147631000Y-72545478D01*
X147439743Y-72577393D01*
X147210514Y-72656089D01*
X147210500Y-72656095D01*
X147102476Y-72714555D01*
X147043459Y-72729500D01*
X145978626Y-72729500D01*
X145911587Y-72709815D01*
X145890945Y-72693181D01*
X134486819Y-61289055D01*
X134453334Y-61227732D01*
X134450500Y-61201374D01*
X134450500Y-58693386D01*
X134446159Y-58645619D01*
X134444086Y-58622804D01*
X134393478Y-58460394D01*
X134305472Y-58314815D01*
X134305470Y-58314813D01*
X134305469Y-58314811D01*
X134185188Y-58194530D01*
X134039606Y-58106522D01*
X133877196Y-58055914D01*
X133877194Y-58055913D01*
X133877192Y-58055913D01*
X133827778Y-58051423D01*
X133806616Y-58049500D01*
X130193384Y-58049500D01*
X130174145Y-58051248D01*
X130122807Y-58055913D01*
X129960393Y-58106522D01*
X129814811Y-58194530D01*
X129694530Y-58314811D01*
X129606522Y-58460393D01*
X129555913Y-58622807D01*
X129549500Y-58693386D01*
X122891150Y-58693386D01*
X119736819Y-55539055D01*
X119703334Y-55477732D01*
X119700500Y-55451374D01*
X119700500Y-54405513D01*
X119670940Y-54218881D01*
X119612545Y-54039163D01*
X119564955Y-53945763D01*
X119526760Y-53870801D01*
X119415690Y-53717927D01*
X119282073Y-53584310D01*
X116782074Y-51084310D01*
X116629199Y-50973240D01*
X116460836Y-50887454D01*
X116281118Y-50829059D01*
X116094486Y-50799500D01*
X116094481Y-50799500D01*
X112094481Y-50799500D01*
X111905518Y-50799500D01*
X111905513Y-50799500D01*
X111718885Y-50829059D01*
X111539165Y-50887454D01*
X111370800Y-50973240D01*
X111217923Y-51084312D01*
X109084312Y-53217923D01*
X109084307Y-53217929D01*
X109070583Y-53236819D01*
X109025043Y-53299500D01*
X108999141Y-53335150D01*
X108973240Y-53370800D01*
X108887454Y-53539163D01*
X108829059Y-53718881D01*
X108799500Y-53905513D01*
X108799500Y-66094486D01*
X108829059Y-66281118D01*
X108887454Y-66460836D01*
X108973240Y-66629199D01*
X109084310Y-66782074D01*
X111409310Y-69107073D01*
X111542927Y-69240690D01*
X111695801Y-69351760D01*
X111775347Y-69392290D01*
X111864163Y-69437545D01*
X111864165Y-69437545D01*
X111864168Y-69437547D01*
X111960497Y-69468846D01*
X112043881Y-69495940D01*
X112230514Y-69525500D01*
X112230519Y-69525500D01*
X112948398Y-69525500D01*
X113015437Y-69545185D01*
X113054514Y-69585349D01*
X113069528Y-69610185D01*
X113069531Y-69610189D01*
X113189811Y-69730469D01*
X113189813Y-69730470D01*
X113189815Y-69730472D01*
X113214650Y-69745485D01*
X113261837Y-69797010D01*
X113274500Y-69851601D01*
X113274500Y-70569486D01*
X113297973Y-70717685D01*
X113299500Y-70737083D01*
X113299500Y-70951374D01*
X113279815Y-71018413D01*
X113263181Y-71039055D01*
X112039055Y-72263181D01*
X111977732Y-72296666D01*
X111951374Y-72299500D01*
X98405514Y-72299500D01*
X98218881Y-72329059D01*
X98039163Y-72387454D01*
X97870800Y-72473240D01*
X97717923Y-72584312D01*
X96084312Y-74217923D01*
X95973240Y-74370800D01*
X95887454Y-74539163D01*
X95829059Y-74718881D01*
X95799500Y-74905513D01*
X95799500Y-75973397D01*
X95779815Y-76040436D01*
X95739652Y-76079513D01*
X95714813Y-76094529D01*
X95714811Y-76094530D01*
X95594530Y-76214811D01*
X95506522Y-76360393D01*
X95455913Y-76522807D01*
X95449500Y-76593386D01*
X95449500Y-77301374D01*
X95429815Y-77368413D01*
X95413181Y-77389055D01*
X93212181Y-79590055D01*
X93150858Y-79623540D01*
X93081166Y-79618556D01*
X93025233Y-79576684D01*
X93000816Y-79511220D01*
X93000500Y-79502374D01*
X93000500Y-54845528D01*
X97249500Y-54845528D01*
X97249500Y-55154471D01*
X97284086Y-55461437D01*
X97284089Y-55461455D01*
X97352831Y-55762635D01*
X97352835Y-55762647D01*
X97454862Y-56054222D01*
X97454868Y-56054236D01*
X97588903Y-56332562D01*
X97588905Y-56332565D01*
X97753265Y-56594143D01*
X97945880Y-56835674D01*
X98164326Y-57054120D01*
X98405857Y-57246735D01*
X98667435Y-57411095D01*
X98945771Y-57545135D01*
X98945777Y-57545137D01*
X99237352Y-57647164D01*
X99237364Y-57647168D01*
X99538548Y-57715911D01*
X99538554Y-57715911D01*
X99538562Y-57715913D01*
X99743206Y-57738970D01*
X99845529Y-57750499D01*
X99845532Y-57750500D01*
X99845535Y-57750500D01*
X100154468Y-57750500D01*
X100154469Y-57750499D01*
X100311356Y-57732822D01*
X100461437Y-57715913D01*
X100461442Y-57715912D01*
X100461452Y-57715911D01*
X100762636Y-57647168D01*
X101054229Y-57545135D01*
X101332565Y-57411095D01*
X101594143Y-57246735D01*
X101835674Y-57054120D01*
X102054120Y-56835674D01*
X102246735Y-56594143D01*
X102411095Y-56332565D01*
X102545135Y-56054229D01*
X102647168Y-55762636D01*
X102715911Y-55461452D01*
X102750500Y-55154465D01*
X102750500Y-54845535D01*
X102735322Y-54710823D01*
X102715913Y-54538562D01*
X102715910Y-54538544D01*
X102647168Y-54237364D01*
X102647164Y-54237352D01*
X102545137Y-53945777D01*
X102545135Y-53945771D01*
X102411095Y-53667435D01*
X102246735Y-53405857D01*
X102054120Y-53164326D01*
X101835674Y-52945880D01*
X101594143Y-52753265D01*
X101332565Y-52588905D01*
X101332562Y-52588903D01*
X101054236Y-52454868D01*
X101054222Y-52454862D01*
X100762647Y-52352835D01*
X100762635Y-52352831D01*
X100461455Y-52284089D01*
X100461437Y-52284086D01*
X100154471Y-52249500D01*
X100154465Y-52249500D01*
X99845535Y-52249500D01*
X99845528Y-52249500D01*
X99538562Y-52284086D01*
X99538544Y-52284089D01*
X99237364Y-52352831D01*
X99237352Y-52352835D01*
X98945777Y-52454862D01*
X98945763Y-52454868D01*
X98667437Y-52588903D01*
X98405858Y-52753264D01*
X98164326Y-52945879D01*
X97945879Y-53164326D01*
X97753264Y-53405858D01*
X97588903Y-53667437D01*
X97454868Y-53945763D01*
X97454862Y-53945777D01*
X97352835Y-54237352D01*
X97352831Y-54237364D01*
X97284089Y-54538544D01*
X97284086Y-54538562D01*
X97249500Y-54845528D01*
X93000500Y-54845528D01*
X93000500Y-50124500D01*
X93020185Y-50057461D01*
X93072989Y-50011706D01*
X93124500Y-50000500D01*
X191875500Y-50000500D01*
X191942539Y-50020185D01*
G37*
%TD.AperFunction*%
%TA.AperFunction,Conductor*%
G36*
X118795703Y-77493913D02*
G01*
X118802181Y-77499945D01*
X125763181Y-84460945D01*
X125796666Y-84522268D01*
X125799500Y-84548626D01*
X125799500Y-102632437D01*
X125795275Y-102664530D01*
X125763793Y-102782020D01*
X125763793Y-102782024D01*
X125752671Y-102909157D01*
X125744723Y-103000000D01*
X125758513Y-103157630D01*
X125763793Y-103217975D01*
X125763793Y-103217979D01*
X125820422Y-103429322D01*
X125820424Y-103429326D01*
X125820425Y-103429330D01*
X125866661Y-103528484D01*
X125912897Y-103627638D01*
X125920000Y-103637782D01*
X126038402Y-103806877D01*
X126193123Y-103961598D01*
X126203589Y-103968926D01*
X126247213Y-104023502D01*
X126254407Y-104093000D01*
X126222884Y-104155355D01*
X126162655Y-104190769D01*
X126132465Y-104194500D01*
X124160782Y-104194500D01*
X124093743Y-104174815D01*
X124073101Y-104158181D01*
X120281479Y-100366559D01*
X120281459Y-100366537D01*
X120137785Y-100222863D01*
X120137781Y-100222860D01*
X119973920Y-100113371D01*
X119973911Y-100113366D01*
X119890683Y-100078892D01*
X119845165Y-100060038D01*
X119818500Y-100048993D01*
X119791837Y-100037949D01*
X119791833Y-100037948D01*
X119683799Y-100016459D01*
X119655379Y-100010806D01*
X119598543Y-99999500D01*
X119598541Y-99999500D01*
X111225782Y-99999500D01*
X111158743Y-99979815D01*
X111138101Y-99963181D01*
X110067822Y-98892902D01*
X110034337Y-98831579D01*
X110039321Y-98761887D01*
X110081193Y-98705954D01*
X110123408Y-98685446D01*
X110204480Y-98663723D01*
X110405167Y-98570142D01*
X110586555Y-98443132D01*
X110743132Y-98286555D01*
X110870142Y-98105167D01*
X110927618Y-97981907D01*
X110973790Y-97929468D01*
X111040983Y-97910316D01*
X111107864Y-97930531D01*
X111152381Y-97981907D01*
X111209858Y-98105167D01*
X111336868Y-98286555D01*
X111493445Y-98443132D01*
X111674833Y-98570142D01*
X111717756Y-98590157D01*
X111875513Y-98663720D01*
X111875515Y-98663720D01*
X111875520Y-98663723D01*
X112089409Y-98721035D01*
X112246974Y-98734820D01*
X112309998Y-98740334D01*
X112310000Y-98740334D01*
X112310002Y-98740334D01*
X112372386Y-98734876D01*
X112530591Y-98721035D01*
X112744480Y-98663723D01*
X112945167Y-98570142D01*
X113126555Y-98443132D01*
X113283132Y-98286555D01*
X113410142Y-98105167D01*
X113467618Y-97981907D01*
X113513790Y-97929468D01*
X113580983Y-97910316D01*
X113647864Y-97930531D01*
X113692381Y-97981907D01*
X113749858Y-98105167D01*
X113876868Y-98286555D01*
X114033445Y-98443132D01*
X114214833Y-98570142D01*
X114257756Y-98590157D01*
X114415513Y-98663720D01*
X114415515Y-98663720D01*
X114415520Y-98663723D01*
X114629409Y-98721035D01*
X114786974Y-98734820D01*
X114849998Y-98740334D01*
X114850000Y-98740334D01*
X114850002Y-98740334D01*
X114912386Y-98734876D01*
X115070591Y-98721035D01*
X115284480Y-98663723D01*
X115485167Y-98570142D01*
X115666555Y-98443132D01*
X115823132Y-98286555D01*
X115950142Y-98105167D01*
X116043723Y-97904480D01*
X116101035Y-97690591D01*
X116120334Y-97470000D01*
X116101035Y-97249409D01*
X116043723Y-97035520D01*
X116031574Y-97009467D01*
X116006443Y-96955572D01*
X115950142Y-96834833D01*
X115823132Y-96653445D01*
X115666555Y-96496868D01*
X115485167Y-96369858D01*
X115485163Y-96369856D01*
X115284486Y-96276279D01*
X115284475Y-96276275D01*
X115070592Y-96218965D01*
X115070585Y-96218964D01*
X114850002Y-96199666D01*
X114849998Y-96199666D01*
X114629414Y-96218964D01*
X114629407Y-96218965D01*
X114415524Y-96276275D01*
X114415513Y-96276279D01*
X114214836Y-96369856D01*
X114214834Y-96369857D01*
X114033444Y-96496868D01*
X113876868Y-96653444D01*
X113749857Y-96834834D01*
X113749856Y-96834836D01*
X113692382Y-96958091D01*
X113646210Y-97010531D01*
X113579017Y-97029683D01*
X113512135Y-97009467D01*
X113467618Y-96958091D01*
X113439050Y-96896828D01*
X113410142Y-96834833D01*
X113283132Y-96653445D01*
X113126555Y-96496868D01*
X112945167Y-96369858D01*
X112945163Y-96369856D01*
X112744486Y-96276279D01*
X112744475Y-96276275D01*
X112530592Y-96218965D01*
X112530585Y-96218964D01*
X112310002Y-96199666D01*
X112309998Y-96199666D01*
X112089414Y-96218964D01*
X112089407Y-96218965D01*
X111875524Y-96276275D01*
X111875513Y-96276279D01*
X111674836Y-96369856D01*
X111674834Y-96369857D01*
X111493444Y-96496868D01*
X111336868Y-96653444D01*
X111209857Y-96834834D01*
X111209856Y-96834836D01*
X111152382Y-96958091D01*
X111106210Y-97010531D01*
X111039017Y-97029683D01*
X110972135Y-97009467D01*
X110927618Y-96958091D01*
X110899050Y-96896828D01*
X110870142Y-96834833D01*
X110743132Y-96653445D01*
X110586555Y-96496868D01*
X110405167Y-96369858D01*
X110405163Y-96369856D01*
X110204486Y-96276279D01*
X110204475Y-96276275D01*
X109990592Y-96218965D01*
X109990585Y-96218964D01*
X109770002Y-96199666D01*
X109769998Y-96199666D01*
X109549414Y-96218964D01*
X109549407Y-96218965D01*
X109335524Y-96276275D01*
X109335513Y-96276279D01*
X109134836Y-96369856D01*
X109134834Y-96369857D01*
X108953444Y-96496868D01*
X108796868Y-96653444D01*
X108669857Y-96834834D01*
X108669856Y-96834836D01*
X108612382Y-96958091D01*
X108566210Y-97010531D01*
X108499017Y-97029683D01*
X108432135Y-97009467D01*
X108387618Y-96958091D01*
X108359050Y-96896828D01*
X108330142Y-96834833D01*
X108203132Y-96653445D01*
X108046555Y-96496868D01*
X107865167Y-96369858D01*
X107865163Y-96369856D01*
X107664486Y-96276279D01*
X107664475Y-96276275D01*
X107450592Y-96218965D01*
X107450585Y-96218964D01*
X107230002Y-96199666D01*
X107229998Y-96199666D01*
X107009414Y-96218964D01*
X107009407Y-96218965D01*
X106795524Y-96276275D01*
X106795513Y-96276279D01*
X106594836Y-96369856D01*
X106594834Y-96369857D01*
X106413444Y-96496868D01*
X106256868Y-96653444D01*
X106129857Y-96834834D01*
X106129856Y-96834836D01*
X106072382Y-96958091D01*
X106026210Y-97010531D01*
X105959017Y-97029683D01*
X105892135Y-97009467D01*
X105847618Y-96958091D01*
X105819050Y-96896828D01*
X105790142Y-96834833D01*
X105663132Y-96653445D01*
X105506555Y-96496868D01*
X105325167Y-96369858D01*
X105325163Y-96369856D01*
X105124486Y-96276279D01*
X105124475Y-96276275D01*
X104910592Y-96218965D01*
X104910585Y-96218964D01*
X104690002Y-96199666D01*
X104689998Y-96199666D01*
X104469414Y-96218964D01*
X104469407Y-96218965D01*
X104255524Y-96276275D01*
X104255513Y-96276279D01*
X104054836Y-96369856D01*
X104054834Y-96369857D01*
X103873444Y-96496868D01*
X103716868Y-96653444D01*
X103589857Y-96834834D01*
X103589856Y-96834836D01*
X103532382Y-96958091D01*
X103486210Y-97010531D01*
X103419017Y-97029683D01*
X103352135Y-97009467D01*
X103307618Y-96958091D01*
X103279050Y-96896828D01*
X103250142Y-96834833D01*
X103123132Y-96653445D01*
X102966555Y-96496868D01*
X102785167Y-96369858D01*
X102785163Y-96369856D01*
X102584486Y-96276279D01*
X102584475Y-96276275D01*
X102370592Y-96218965D01*
X102370585Y-96218964D01*
X102150002Y-96199666D01*
X102149998Y-96199666D01*
X101929414Y-96218964D01*
X101929407Y-96218965D01*
X101715524Y-96276275D01*
X101715513Y-96276279D01*
X101514836Y-96369856D01*
X101514834Y-96369857D01*
X101333444Y-96496868D01*
X101176871Y-96653441D01*
X101176862Y-96653452D01*
X101081892Y-96789082D01*
X101027315Y-96832707D01*
X100957817Y-96839899D01*
X100895462Y-96808376D01*
X100861933Y-96754850D01*
X100818478Y-96615394D01*
X100730472Y-96469815D01*
X100730470Y-96469813D01*
X100730469Y-96469811D01*
X100610188Y-96349530D01*
X100464606Y-96261522D01*
X100302196Y-96210914D01*
X100302194Y-96210913D01*
X100302192Y-96210913D01*
X100252778Y-96206423D01*
X100231616Y-96204500D01*
X98988384Y-96204500D01*
X98969145Y-96206248D01*
X98917807Y-96210913D01*
X98755393Y-96261522D01*
X98609811Y-96349530D01*
X98489530Y-96469811D01*
X98401522Y-96615393D01*
X98350913Y-96777807D01*
X98345925Y-96832707D01*
X98344500Y-96848384D01*
X98344500Y-98091616D01*
X98346181Y-98110109D01*
X98350913Y-98162192D01*
X98350913Y-98162194D01*
X98350914Y-98162196D01*
X98401522Y-98324606D01*
X98489528Y-98470185D01*
X98573182Y-98553839D01*
X98606666Y-98615160D01*
X98609500Y-98641519D01*
X98609500Y-100708542D01*
X98618300Y-100752780D01*
X98618300Y-100752782D01*
X98638610Y-100854888D01*
X98647947Y-100901829D01*
X98647949Y-100901837D01*
X98723364Y-101083907D01*
X98723371Y-101083920D01*
X98832859Y-101247780D01*
X98832860Y-101247781D01*
X98832861Y-101247782D01*
X98972218Y-101387139D01*
X98972219Y-101387139D01*
X98979286Y-101394206D01*
X98979285Y-101394206D01*
X98979289Y-101394209D01*
X105362215Y-107777137D01*
X105362219Y-107777140D01*
X105526079Y-107886628D01*
X105526085Y-107886631D01*
X105526086Y-107886632D01*
X105708165Y-107962052D01*
X105869389Y-107994121D01*
X105901457Y-108000499D01*
X105901458Y-108000500D01*
X105901459Y-108000500D01*
X105901460Y-108000500D01*
X106098541Y-108000500D01*
X116034218Y-108000500D01*
X116101257Y-108020185D01*
X116121899Y-108036819D01*
X121534735Y-113449655D01*
X121534764Y-113449686D01*
X121677217Y-113592139D01*
X121755628Y-113644531D01*
X121841086Y-113701632D01*
X121929655Y-113738318D01*
X122023164Y-113777051D01*
X122119812Y-113796275D01*
X122136025Y-113799500D01*
X122216458Y-113815500D01*
X122216459Y-113815500D01*
X122216460Y-113815500D01*
X122413540Y-113815500D01*
X129863136Y-113815500D01*
X129930175Y-113835185D01*
X129960081Y-113862185D01*
X130048645Y-113973240D01*
X130049954Y-113974882D01*
X130070669Y-113994103D01*
X130106422Y-114054132D01*
X130104046Y-114123961D01*
X130070669Y-114175897D01*
X130049954Y-114195117D01*
X129960083Y-114307813D01*
X129902894Y-114347953D01*
X129863136Y-114354500D01*
X114546457Y-114354500D01*
X114491825Y-114365367D01*
X114464509Y-114370801D01*
X114353167Y-114392947D01*
X114353159Y-114392950D01*
X114299834Y-114415037D01*
X114299834Y-114415038D01*
X114280101Y-114423212D01*
X114171089Y-114468366D01*
X114171084Y-114468369D01*
X114007219Y-114577859D01*
X113969970Y-114615109D01*
X113867861Y-114717218D01*
X113867858Y-114717221D01*
X97862221Y-130722858D01*
X97862218Y-130722861D01*
X97826252Y-130758827D01*
X97722859Y-130862219D01*
X97613371Y-131026079D01*
X97613364Y-131026092D01*
X97537950Y-131208160D01*
X97537947Y-131208170D01*
X97499500Y-131401456D01*
X97499500Y-131401459D01*
X97499500Y-145098541D01*
X97499500Y-145098543D01*
X97499499Y-145098543D01*
X97537947Y-145291829D01*
X97537950Y-145291839D01*
X97613364Y-145473907D01*
X97613371Y-145473920D01*
X97722859Y-145637780D01*
X97722860Y-145637781D01*
X97722861Y-145637782D01*
X97862218Y-145777139D01*
X97862219Y-145777139D01*
X97869286Y-145784206D01*
X97869285Y-145784206D01*
X97869289Y-145784209D01*
X99172898Y-147087819D01*
X99206383Y-147149142D01*
X99201399Y-147218834D01*
X99159527Y-147274767D01*
X99094063Y-147299184D01*
X99085217Y-147299500D01*
X98548625Y-147299500D01*
X98481586Y-147279815D01*
X98460944Y-147263181D01*
X96736819Y-145539055D01*
X96703334Y-145477732D01*
X96700500Y-145451374D01*
X96700500Y-117548625D01*
X96720185Y-117481586D01*
X96736814Y-117460948D01*
X97744407Y-116453355D01*
X97805730Y-116419871D01*
X97875422Y-116424855D01*
X97896235Y-116434918D01*
X97910394Y-116443478D01*
X98072804Y-116494086D01*
X98143384Y-116500500D01*
X98143387Y-116500500D01*
X99856613Y-116500500D01*
X99856616Y-116500500D01*
X99927196Y-116494086D01*
X100089606Y-116443478D01*
X100235185Y-116355472D01*
X100355472Y-116235185D01*
X100443478Y-116089606D01*
X100494086Y-115927196D01*
X100500500Y-115856616D01*
X100500500Y-114143384D01*
X100494086Y-114072804D01*
X100443478Y-113910394D01*
X100355472Y-113764815D01*
X100355470Y-113764813D01*
X100355469Y-113764811D01*
X100235188Y-113644530D01*
X100089606Y-113556522D01*
X100082225Y-113554222D01*
X99927196Y-113505914D01*
X99927194Y-113505913D01*
X99927192Y-113505913D01*
X99877778Y-113501423D01*
X99856616Y-113499500D01*
X98143384Y-113499500D01*
X98124145Y-113501248D01*
X98072807Y-113505913D01*
X97910393Y-113556522D01*
X97764811Y-113644530D01*
X97764810Y-113644531D01*
X97646161Y-113763181D01*
X97584838Y-113796666D01*
X97558480Y-113799500D01*
X97405513Y-113799500D01*
X97218885Y-113829059D01*
X97039165Y-113887454D01*
X96870800Y-113973240D01*
X96717923Y-114084312D01*
X95587681Y-115214555D01*
X95526358Y-115248040D01*
X95456666Y-115243056D01*
X95412319Y-115214555D01*
X95236819Y-115039055D01*
X95203334Y-114977732D01*
X95200500Y-114951374D01*
X95200500Y-112345528D01*
X107249500Y-112345528D01*
X107249500Y-112654471D01*
X107284086Y-112961437D01*
X107284089Y-112961455D01*
X107352831Y-113262635D01*
X107352835Y-113262647D01*
X107454862Y-113554222D01*
X107454868Y-113554236D01*
X107588903Y-113832562D01*
X107588905Y-113832565D01*
X107753265Y-114094143D01*
X107833794Y-114195123D01*
X107923661Y-114307813D01*
X107945880Y-114335674D01*
X108164326Y-114554120D01*
X108405857Y-114746735D01*
X108667435Y-114911095D01*
X108945771Y-115045135D01*
X108945777Y-115045137D01*
X109237352Y-115147164D01*
X109237364Y-115147168D01*
X109538548Y-115215911D01*
X109538554Y-115215911D01*
X109538562Y-115215913D01*
X109743206Y-115238970D01*
X109845529Y-115250499D01*
X109845532Y-115250500D01*
X109845535Y-115250500D01*
X110154468Y-115250500D01*
X110154469Y-115250499D01*
X110311356Y-115232822D01*
X110461437Y-115215913D01*
X110461442Y-115215912D01*
X110461452Y-115215911D01*
X110762636Y-115147168D01*
X111054229Y-115045135D01*
X111332565Y-114911095D01*
X111594143Y-114746735D01*
X111835674Y-114554120D01*
X112054120Y-114335674D01*
X112246735Y-114094143D01*
X112411095Y-113832565D01*
X112545135Y-113554229D01*
X112647168Y-113262636D01*
X112715911Y-112961452D01*
X112750500Y-112654465D01*
X112750500Y-112345535D01*
X112720031Y-112075112D01*
X112715913Y-112038562D01*
X112715910Y-112038544D01*
X112647168Y-111737364D01*
X112647164Y-111737352D01*
X112545137Y-111445777D01*
X112545135Y-111445771D01*
X112411095Y-111167435D01*
X112246735Y-110905857D01*
X112054120Y-110664326D01*
X111835674Y-110445880D01*
X111594143Y-110253265D01*
X111332565Y-110088905D01*
X111332562Y-110088903D01*
X111054236Y-109954868D01*
X111054222Y-109954862D01*
X110762647Y-109852835D01*
X110762635Y-109852831D01*
X110461455Y-109784089D01*
X110461437Y-109784086D01*
X110154471Y-109749500D01*
X110154465Y-109749500D01*
X109845535Y-109749500D01*
X109845528Y-109749500D01*
X109538562Y-109784086D01*
X109538544Y-109784089D01*
X109237364Y-109852831D01*
X109237352Y-109852835D01*
X108945777Y-109954862D01*
X108945763Y-109954868D01*
X108667437Y-110088903D01*
X108405858Y-110253264D01*
X108164326Y-110445879D01*
X107945879Y-110664326D01*
X107753264Y-110905858D01*
X107588903Y-111167437D01*
X107454868Y-111445763D01*
X107454862Y-111445777D01*
X107352835Y-111737352D01*
X107352831Y-111737364D01*
X107284089Y-112038544D01*
X107284086Y-112038562D01*
X107249500Y-112345528D01*
X95200500Y-112345528D01*
X95200500Y-81048625D01*
X95220185Y-80981586D01*
X95236819Y-80960944D01*
X97110944Y-79086819D01*
X97172267Y-79053334D01*
X97198625Y-79050500D01*
X97906613Y-79050500D01*
X97906616Y-79050500D01*
X97977196Y-79044086D01*
X98139606Y-78993478D01*
X98285185Y-78905472D01*
X98287815Y-78902841D01*
X98290216Y-78901530D01*
X98291094Y-78900843D01*
X98291208Y-78900988D01*
X98349134Y-78869354D01*
X98418826Y-78874335D01*
X98474762Y-78916202D01*
X98499184Y-78981665D01*
X98499500Y-78990519D01*
X98499500Y-88889557D01*
X98487882Y-88941961D01*
X98416279Y-89095513D01*
X98416275Y-89095524D01*
X98358965Y-89309407D01*
X98358964Y-89309414D01*
X98339666Y-89529998D01*
X98339666Y-89530001D01*
X98358964Y-89750585D01*
X98358965Y-89750592D01*
X98416275Y-89964475D01*
X98416279Y-89964486D01*
X98489682Y-90121899D01*
X98509858Y-90165167D01*
X98636868Y-90346555D01*
X98793445Y-90503132D01*
X98974833Y-90630142D01*
X99095572Y-90686443D01*
X99175513Y-90723720D01*
X99175515Y-90723720D01*
X99175520Y-90723723D01*
X99389409Y-90781035D01*
X99546974Y-90794820D01*
X99609998Y-90800334D01*
X99610000Y-90800334D01*
X99610002Y-90800334D01*
X99665147Y-90795509D01*
X99830591Y-90781035D01*
X100044480Y-90723723D01*
X100245167Y-90630142D01*
X100426555Y-90503132D01*
X100583132Y-90346555D01*
X100710142Y-90165167D01*
X100767618Y-90041907D01*
X100813790Y-89989468D01*
X100880983Y-89970316D01*
X100947864Y-89990531D01*
X100992381Y-90041907D01*
X101049858Y-90165167D01*
X101176868Y-90346555D01*
X101333445Y-90503132D01*
X101514833Y-90630142D01*
X101635572Y-90686443D01*
X101715513Y-90723720D01*
X101715515Y-90723720D01*
X101715520Y-90723723D01*
X101929409Y-90781035D01*
X102086974Y-90794820D01*
X102149998Y-90800334D01*
X102150000Y-90800334D01*
X102150002Y-90800334D01*
X102205147Y-90795509D01*
X102370591Y-90781035D01*
X102584480Y-90723723D01*
X102785167Y-90630142D01*
X102966555Y-90503132D01*
X103123132Y-90346555D01*
X103250142Y-90165167D01*
X103307618Y-90041907D01*
X103353790Y-89989468D01*
X103420983Y-89970316D01*
X103487864Y-89990531D01*
X103532381Y-90041907D01*
X103589858Y-90165167D01*
X103716868Y-90346555D01*
X103873445Y-90503132D01*
X104054833Y-90630142D01*
X104175572Y-90686443D01*
X104255513Y-90723720D01*
X104255515Y-90723720D01*
X104255520Y-90723723D01*
X104469409Y-90781035D01*
X104626974Y-90794820D01*
X104689998Y-90800334D01*
X104690000Y-90800334D01*
X104690002Y-90800334D01*
X104745147Y-90795509D01*
X104910591Y-90781035D01*
X105124480Y-90723723D01*
X105325167Y-90630142D01*
X105506555Y-90503132D01*
X105663132Y-90346555D01*
X105790142Y-90165167D01*
X105847618Y-90041907D01*
X105893790Y-89989468D01*
X105960983Y-89970316D01*
X106027864Y-89990531D01*
X106072381Y-90041907D01*
X106129858Y-90165167D01*
X106256868Y-90346555D01*
X106413445Y-90503132D01*
X106594833Y-90630142D01*
X106715572Y-90686443D01*
X106795513Y-90723720D01*
X106795515Y-90723720D01*
X106795520Y-90723723D01*
X107009409Y-90781035D01*
X107166974Y-90794820D01*
X107229998Y-90800334D01*
X107230000Y-90800334D01*
X107230002Y-90800334D01*
X107285147Y-90795509D01*
X107450591Y-90781035D01*
X107664480Y-90723723D01*
X107865167Y-90630142D01*
X108046555Y-90503132D01*
X108203132Y-90346555D01*
X108330142Y-90165167D01*
X108387618Y-90041907D01*
X108433790Y-89989468D01*
X108500983Y-89970316D01*
X108567864Y-89990531D01*
X108612381Y-90041907D01*
X108669858Y-90165167D01*
X108796868Y-90346555D01*
X108953445Y-90503132D01*
X109134833Y-90630142D01*
X109255572Y-90686443D01*
X109335513Y-90723720D01*
X109335515Y-90723720D01*
X109335520Y-90723723D01*
X109549409Y-90781035D01*
X109706974Y-90794820D01*
X109769998Y-90800334D01*
X109770000Y-90800334D01*
X109770002Y-90800334D01*
X109825147Y-90795509D01*
X109990591Y-90781035D01*
X110204480Y-90723723D01*
X110405167Y-90630142D01*
X110586555Y-90503132D01*
X110743132Y-90346555D01*
X110870142Y-90165167D01*
X110927618Y-90041907D01*
X110973790Y-89989468D01*
X111040983Y-89970316D01*
X111107864Y-89990531D01*
X111152381Y-90041907D01*
X111209858Y-90165167D01*
X111336868Y-90346555D01*
X111493445Y-90503132D01*
X111674833Y-90630142D01*
X111795572Y-90686443D01*
X111875513Y-90723720D01*
X111875515Y-90723720D01*
X111875520Y-90723723D01*
X112089409Y-90781035D01*
X112246974Y-90794820D01*
X112309998Y-90800334D01*
X112310000Y-90800334D01*
X112310002Y-90800334D01*
X112365147Y-90795509D01*
X112530591Y-90781035D01*
X112744480Y-90723723D01*
X112945167Y-90630142D01*
X113126555Y-90503132D01*
X113283132Y-90346555D01*
X113410142Y-90165167D01*
X113467618Y-90041907D01*
X113513790Y-89989468D01*
X113580983Y-89970316D01*
X113647864Y-89990531D01*
X113692381Y-90041907D01*
X113749858Y-90165167D01*
X113876868Y-90346555D01*
X114033445Y-90503132D01*
X114214833Y-90630142D01*
X114335572Y-90686443D01*
X114415513Y-90723720D01*
X114415515Y-90723720D01*
X114415520Y-90723723D01*
X114629409Y-90781035D01*
X114786974Y-90794820D01*
X114849998Y-90800334D01*
X114850000Y-90800334D01*
X114850002Y-90800334D01*
X114905147Y-90795509D01*
X115070591Y-90781035D01*
X115284480Y-90723723D01*
X115485167Y-90630142D01*
X115666555Y-90503132D01*
X115823132Y-90346555D01*
X115950142Y-90165167D01*
X116007618Y-90041907D01*
X116053790Y-89989468D01*
X116120983Y-89970316D01*
X116187864Y-89990531D01*
X116232381Y-90041907D01*
X116289858Y-90165167D01*
X116416868Y-90346555D01*
X116573445Y-90503132D01*
X116754833Y-90630142D01*
X116875572Y-90686443D01*
X116955513Y-90723720D01*
X116955515Y-90723720D01*
X116955520Y-90723723D01*
X117169409Y-90781035D01*
X117326974Y-90794820D01*
X117389998Y-90800334D01*
X117390000Y-90800334D01*
X117390002Y-90800334D01*
X117445147Y-90795509D01*
X117610591Y-90781035D01*
X117824480Y-90723723D01*
X118025167Y-90630142D01*
X118206555Y-90503132D01*
X118363132Y-90346555D01*
X118490142Y-90165167D01*
X118583723Y-89964480D01*
X118641035Y-89750591D01*
X118660334Y-89530000D01*
X118641035Y-89309409D01*
X118594725Y-89136577D01*
X118590500Y-89104484D01*
X118590500Y-85548624D01*
X118610185Y-85481585D01*
X118626810Y-85460952D01*
X118751030Y-85336731D01*
X118812349Y-85303249D01*
X118840574Y-85300862D01*
X118840574Y-85300500D01*
X120156613Y-85300500D01*
X120156616Y-85300500D01*
X120227196Y-85294086D01*
X120389606Y-85243478D01*
X120535185Y-85155472D01*
X120655472Y-85035185D01*
X120743478Y-84889606D01*
X120794086Y-84727196D01*
X120800500Y-84656616D01*
X120800500Y-83343384D01*
X120794086Y-83272804D01*
X120743478Y-83110394D01*
X120655472Y-82964815D01*
X120655470Y-82964813D01*
X120655469Y-82964811D01*
X120535188Y-82844530D01*
X120423710Y-82777139D01*
X120389606Y-82756522D01*
X120227196Y-82705914D01*
X120227194Y-82705913D01*
X120227192Y-82705913D01*
X120177778Y-82701423D01*
X120156616Y-82699500D01*
X118843384Y-82699500D01*
X118801036Y-82703348D01*
X118772802Y-82705914D01*
X118751387Y-82712587D01*
X118681527Y-82713737D01*
X118622135Y-82676934D01*
X118592069Y-82613865D01*
X118590500Y-82594201D01*
X118590500Y-77587626D01*
X118610185Y-77520587D01*
X118662989Y-77474832D01*
X118732147Y-77464888D01*
X118795703Y-77493913D01*
G37*
%TD.AperFunction*%
%TA.AperFunction,Conductor*%
G36*
X155330175Y-116375185D02*
G01*
X155360081Y-116402185D01*
X155393011Y-116443478D01*
X155449954Y-116514882D01*
X155470669Y-116534103D01*
X155506422Y-116594132D01*
X155504046Y-116663961D01*
X155470669Y-116715897D01*
X155449954Y-116735117D01*
X155386988Y-116814073D01*
X155371476Y-116833527D01*
X155360083Y-116847813D01*
X155302894Y-116887953D01*
X155263136Y-116894500D01*
X151709675Y-116894500D01*
X151709655Y-116894499D01*
X151703541Y-116894499D01*
X151506460Y-116894499D01*
X151506457Y-116894499D01*
X151313172Y-116932946D01*
X151313164Y-116932948D01*
X151131088Y-117008366D01*
X151131079Y-117008371D01*
X150967219Y-117117859D01*
X150967215Y-117117862D01*
X129581899Y-138503181D01*
X129520576Y-138536666D01*
X129494218Y-138539500D01*
X122172855Y-138539500D01*
X122105816Y-138519815D01*
X122081626Y-138499483D01*
X122019747Y-138432265D01*
X122019744Y-138432262D01*
X121985621Y-138405703D01*
X121936991Y-138367852D01*
X121896179Y-138311143D01*
X121892504Y-138241370D01*
X121927136Y-138180687D01*
X121936985Y-138172151D01*
X122019744Y-138107738D01*
X122188164Y-137924785D01*
X122324173Y-137716607D01*
X122424063Y-137488881D01*
X122485108Y-137247821D01*
X122502449Y-137038548D01*
X122505643Y-137000005D01*
X122505643Y-136999994D01*
X122485109Y-136752187D01*
X122485107Y-136752175D01*
X122424063Y-136511118D01*
X122324173Y-136283393D01*
X122188166Y-136075217D01*
X122166557Y-136051744D01*
X122019744Y-135892262D01*
X121823509Y-135739526D01*
X121823507Y-135739525D01*
X121823506Y-135739524D01*
X121604811Y-135621172D01*
X121604802Y-135621169D01*
X121369616Y-135540429D01*
X121124335Y-135499500D01*
X120875665Y-135499500D01*
X120630383Y-135540429D01*
X120395197Y-135621169D01*
X120395188Y-135621172D01*
X120176489Y-135739527D01*
X120133028Y-135773354D01*
X120068033Y-135798996D01*
X120056866Y-135799500D01*
X119405514Y-135799500D01*
X119218881Y-135829059D01*
X119039163Y-135887454D01*
X118870800Y-135973240D01*
X118816364Y-136012791D01*
X118717927Y-136084310D01*
X118717925Y-136084312D01*
X118717924Y-136084312D01*
X117584308Y-137217927D01*
X117584304Y-137217932D01*
X117491945Y-137345055D01*
X117491945Y-137345056D01*
X117473240Y-137370800D01*
X117434985Y-137445880D01*
X117387010Y-137496676D01*
X117319189Y-137513471D01*
X117253054Y-137490933D01*
X117209603Y-137436218D01*
X117200500Y-137389585D01*
X117200500Y-133548625D01*
X117220185Y-133481586D01*
X117236814Y-133460949D01*
X117337505Y-133360258D01*
X130019500Y-133360258D01*
X130019500Y-133589741D01*
X130044446Y-133779215D01*
X130049452Y-133817238D01*
X130097689Y-133997263D01*
X130108842Y-134038887D01*
X130196650Y-134250876D01*
X130196657Y-134250890D01*
X130311392Y-134449617D01*
X130451081Y-134631661D01*
X130451089Y-134631670D01*
X130613330Y-134793911D01*
X130613338Y-134793918D01*
X130795382Y-134933607D01*
X130795385Y-134933608D01*
X130795388Y-134933611D01*
X130994112Y-135048344D01*
X130994117Y-135048346D01*
X130994123Y-135048349D01*
X131085480Y-135086190D01*
X131206113Y-135136158D01*
X131427762Y-135195548D01*
X131655266Y-135225500D01*
X131655273Y-135225500D01*
X131884727Y-135225500D01*
X131884734Y-135225500D01*
X132112238Y-135195548D01*
X132333887Y-135136158D01*
X132545888Y-135048344D01*
X132744612Y-134933611D01*
X132926661Y-134793919D01*
X132926665Y-134793914D01*
X132926670Y-134793911D01*
X133088911Y-134631670D01*
X133088914Y-134631665D01*
X133088919Y-134631661D01*
X133228611Y-134449612D01*
X133343344Y-134250888D01*
X133431158Y-134038887D01*
X133490548Y-133817238D01*
X133520500Y-133589734D01*
X133520500Y-133360266D01*
X133490548Y-133132762D01*
X133431158Y-132911113D01*
X133343344Y-132699112D01*
X133228611Y-132500388D01*
X133228608Y-132500385D01*
X133228607Y-132500382D01*
X133088918Y-132318338D01*
X133088911Y-132318330D01*
X132926670Y-132156089D01*
X132926661Y-132156081D01*
X132744617Y-132016392D01*
X132545890Y-131901657D01*
X132545876Y-131901650D01*
X132333887Y-131813842D01*
X132112238Y-131754452D01*
X132074215Y-131749446D01*
X131884741Y-131724500D01*
X131884734Y-131724500D01*
X131655266Y-131724500D01*
X131655258Y-131724500D01*
X131438715Y-131753009D01*
X131427762Y-131754452D01*
X131334076Y-131779554D01*
X131206112Y-131813842D01*
X130994123Y-131901650D01*
X130994109Y-131901657D01*
X130795382Y-132016392D01*
X130613338Y-132156081D01*
X130451081Y-132318338D01*
X130311392Y-132500382D01*
X130196657Y-132699109D01*
X130196650Y-132699123D01*
X130108842Y-132911112D01*
X130049453Y-133132759D01*
X130049451Y-133132770D01*
X130019500Y-133360258D01*
X117337505Y-133360258D01*
X120033767Y-130663995D01*
X120095088Y-130630512D01*
X120164780Y-130635496D01*
X120180451Y-130642617D01*
X120395190Y-130758828D01*
X120630386Y-130839571D01*
X120875665Y-130880500D01*
X121124335Y-130880500D01*
X121369614Y-130839571D01*
X121604810Y-130758828D01*
X121823509Y-130640474D01*
X122019744Y-130487738D01*
X122188164Y-130304785D01*
X122324173Y-130096607D01*
X122424063Y-129868881D01*
X122485108Y-129627821D01*
X122505643Y-129380000D01*
X122505643Y-129379994D01*
X122505643Y-129379993D01*
X122485321Y-129134740D01*
X122499402Y-129066304D01*
X122548247Y-129016345D01*
X122608897Y-129000500D01*
X134598542Y-129000500D01*
X134617870Y-128996655D01*
X134695188Y-128981275D01*
X134791836Y-128962051D01*
X134845165Y-128939961D01*
X134973914Y-128886632D01*
X135137782Y-128777139D01*
X135277139Y-128637782D01*
X135277139Y-128637780D01*
X135287347Y-128627573D01*
X135287348Y-128627570D01*
X147523102Y-116391819D01*
X147584425Y-116358334D01*
X147610783Y-116355500D01*
X155263136Y-116355500D01*
X155330175Y-116375185D01*
G37*
%TD.AperFunction*%
%TA.AperFunction,Conductor*%
G36*
X125907588Y-121655185D02*
G01*
X125953343Y-121707989D01*
X125963287Y-121777147D01*
X125942125Y-121830621D01*
X125912898Y-121872362D01*
X125912896Y-121872365D01*
X125907300Y-121884364D01*
X125882603Y-121919632D01*
X125084312Y-122717923D01*
X125084307Y-122717929D01*
X125034840Y-122786016D01*
X125025043Y-122799500D01*
X125009681Y-122820644D01*
X124973240Y-122870800D01*
X124891210Y-123031795D01*
X124843236Y-123082591D01*
X124780725Y-123099500D01*
X121943134Y-123099500D01*
X121876095Y-123079815D01*
X121866972Y-123073354D01*
X121823510Y-123039527D01*
X121823509Y-123039526D01*
X121619887Y-122929331D01*
X121604811Y-122921172D01*
X121604802Y-122921169D01*
X121369616Y-122840429D01*
X121124335Y-122799500D01*
X120875665Y-122799500D01*
X120630383Y-122840429D01*
X120395197Y-122921169D01*
X120395188Y-122921172D01*
X120176493Y-123039524D01*
X119980257Y-123192261D01*
X119811833Y-123375217D01*
X119675826Y-123583393D01*
X119575936Y-123811118D01*
X119514892Y-124052175D01*
X119514890Y-124052187D01*
X119494357Y-124299994D01*
X119494357Y-124300005D01*
X119514890Y-124547812D01*
X119514892Y-124547824D01*
X119575936Y-124788881D01*
X119675826Y-125016606D01*
X119811833Y-125224782D01*
X119811836Y-125224785D01*
X119980256Y-125407738D01*
X120063008Y-125472147D01*
X120103821Y-125528857D01*
X120107496Y-125598630D01*
X120072864Y-125659313D01*
X120063014Y-125667848D01*
X120004400Y-125713469D01*
X119980257Y-125732261D01*
X119811833Y-125915217D01*
X119675826Y-126123393D01*
X119575936Y-126351118D01*
X119514892Y-126592175D01*
X119514890Y-126592187D01*
X119494357Y-126839994D01*
X119494357Y-126840005D01*
X119514890Y-127087812D01*
X119514892Y-127087824D01*
X119575936Y-127328881D01*
X119675826Y-127556606D01*
X119811833Y-127764782D01*
X119811836Y-127764785D01*
X119980256Y-127947738D01*
X119991861Y-127956770D01*
X119992987Y-127957647D01*
X120033800Y-128014358D01*
X120037473Y-128084131D01*
X120002842Y-128144814D01*
X119940900Y-128177140D01*
X119916824Y-128179500D01*
X119525513Y-128179500D01*
X119338885Y-128209059D01*
X119159165Y-128267454D01*
X118990800Y-128353240D01*
X118837923Y-128464312D01*
X115084312Y-132217923D01*
X115084307Y-132217929D01*
X115025043Y-132299500D01*
X115011356Y-132318339D01*
X114973240Y-132370800D01*
X114887454Y-132539163D01*
X114829059Y-132718881D01*
X114799500Y-132905513D01*
X114799500Y-136012791D01*
X114779815Y-136079830D01*
X114727011Y-136125585D01*
X114657853Y-136135529D01*
X114594297Y-136106504D01*
X114571694Y-136080617D01*
X114568166Y-136075217D01*
X114546557Y-136051744D01*
X114399744Y-135892262D01*
X114203509Y-135739526D01*
X114203507Y-135739525D01*
X114203506Y-135739524D01*
X113984811Y-135621172D01*
X113984802Y-135621169D01*
X113749616Y-135540429D01*
X113504335Y-135499500D01*
X113255665Y-135499500D01*
X113010383Y-135540429D01*
X112775197Y-135621169D01*
X112775188Y-135621172D01*
X112556489Y-135739527D01*
X112513028Y-135773354D01*
X112448033Y-135798996D01*
X112436866Y-135799500D01*
X109445513Y-135799500D01*
X109258885Y-135829059D01*
X109079165Y-135887454D01*
X108910800Y-135973240D01*
X108757923Y-136084312D01*
X106412181Y-138430055D01*
X106350858Y-138463540D01*
X106281166Y-138458556D01*
X106225233Y-138416684D01*
X106200816Y-138351220D01*
X106200500Y-138342374D01*
X106200500Y-135903386D01*
X106194086Y-135832807D01*
X106194086Y-135832804D01*
X106143478Y-135670394D01*
X106055472Y-135524815D01*
X106055470Y-135524813D01*
X106055469Y-135524811D01*
X105935188Y-135404530D01*
X105789606Y-135316522D01*
X105627196Y-135265914D01*
X105627194Y-135265913D01*
X105627192Y-135265913D01*
X105577778Y-135261423D01*
X105556616Y-135259500D01*
X105556613Y-135259500D01*
X105324500Y-135259500D01*
X105257461Y-135239815D01*
X105211706Y-135187011D01*
X105200500Y-135135500D01*
X105200500Y-134048625D01*
X105220185Y-133981586D01*
X105236819Y-133960944D01*
X108580944Y-130616819D01*
X108642267Y-130583334D01*
X108668625Y-130580500D01*
X112436866Y-130580500D01*
X112503905Y-130600185D01*
X112513028Y-130606646D01*
X112526099Y-130616819D01*
X112556491Y-130640474D01*
X112775190Y-130758828D01*
X113010386Y-130839571D01*
X113255665Y-130880500D01*
X113504335Y-130880500D01*
X113749614Y-130839571D01*
X113984810Y-130758828D01*
X114203509Y-130640474D01*
X114399744Y-130487738D01*
X114568164Y-130304785D01*
X114704173Y-130096607D01*
X114804063Y-129868881D01*
X114865108Y-129627821D01*
X114885643Y-129380000D01*
X114885642Y-129379993D01*
X114865109Y-129132187D01*
X114865107Y-129132175D01*
X114804063Y-128891118D01*
X114704173Y-128663393D01*
X114568166Y-128455217D01*
X114474289Y-128353240D01*
X114399744Y-128272262D01*
X114316991Y-128207852D01*
X114276179Y-128151143D01*
X114272504Y-128081370D01*
X114307136Y-128020687D01*
X114316985Y-128012151D01*
X114399744Y-127947738D01*
X114568164Y-127764785D01*
X114704173Y-127556607D01*
X114804063Y-127328881D01*
X114865108Y-127087821D01*
X114866546Y-127070469D01*
X114885643Y-126840005D01*
X114885643Y-126839994D01*
X114865109Y-126592187D01*
X114865107Y-126592175D01*
X114804063Y-126351118D01*
X114704173Y-126123393D01*
X114568166Y-125915217D01*
X114462561Y-125800500D01*
X114399744Y-125732262D01*
X114316991Y-125667852D01*
X114276179Y-125611143D01*
X114272504Y-125541370D01*
X114307136Y-125480687D01*
X114316985Y-125472151D01*
X114399744Y-125407738D01*
X114568164Y-125224785D01*
X114704173Y-125016607D01*
X114804063Y-124788881D01*
X114865108Y-124547821D01*
X114865108Y-124547809D01*
X114865612Y-124544799D01*
X114866159Y-124543667D01*
X114866367Y-124542849D01*
X114866535Y-124542891D01*
X114896059Y-124481912D01*
X114900220Y-124477542D01*
X117705945Y-121671819D01*
X117767268Y-121638334D01*
X117793626Y-121635500D01*
X125840549Y-121635500D01*
X125907588Y-121655185D01*
G37*
%TD.AperFunction*%
%TD*%
M02*
