%TF.GenerationSoftware,KiCad,Pcbnew,8.0.4*%
%TF.CreationDate,2024-09-09T18:44:09-05:00*%
%TF.ProjectId,PCB 1,50434220-312e-46b6-9963-61645f706362,rev?*%
%TF.SameCoordinates,Original*%
%TF.FileFunction,Plated,1,2,PTH,Mixed*%
%TF.FilePolarity,Positive*%
%FSLAX46Y46*%
G04 Gerber Fmt 4.6, Leading zero omitted, Abs format (unit mm)*
G04 Created by KiCad (PCBNEW 8.0.4) date 2024-09-09 18:44:09*
%MOMM*%
%LPD*%
G01*
G04 APERTURE LIST*
%TA.AperFunction,ComponentDrill*%
%ADD10C,0.600000*%
%TD*%
%TA.AperFunction,ViaDrill*%
%ADD11C,0.650000*%
%TD*%
%TA.AperFunction,ComponentDrill*%
%ADD12C,0.762000*%
%TD*%
%TA.AperFunction,ComponentDrill*%
%ADD13C,0.780000*%
%TD*%
%TA.AperFunction,ComponentDrill*%
%ADD14C,0.800000*%
%TD*%
%TA.AperFunction,ComponentDrill*%
%ADD15C,1.000000*%
%TD*%
G04 aperture for slot hole*
%TA.AperFunction,ComponentDrill*%
%ADD16C,1.000000*%
%TD*%
%TA.AperFunction,ComponentDrill*%
%ADD17C,1.020000*%
%TD*%
%TA.AperFunction,ComponentDrill*%
%ADD18C,1.520000*%
%TD*%
%TA.AperFunction,ComponentDrill*%
%ADD19C,2.000000*%
%TD*%
G04 APERTURE END LIST*
D10*
%TO.C,C2*%
X119500000Y-84000000D03*
X121500000Y-84000000D03*
%TD*%
D11*
X99500000Y-126500000D03*
X109000000Y-133500000D03*
X117500000Y-66000000D03*
X123000000Y-53500000D03*
X124500000Y-85500000D03*
X127000000Y-103000000D03*
X127000000Y-122500000D03*
X127500000Y-137000000D03*
X128500000Y-80000000D03*
X138500000Y-142000000D03*
D12*
%TO.C,U4*%
X147800000Y-74000000D03*
X150340000Y-74000000D03*
X152880000Y-74000000D03*
X155420000Y-74000000D03*
X157960000Y-74000000D03*
X160500000Y-74000000D03*
D13*
%TO.C,U3*%
X99610000Y-89530000D03*
X99610000Y-97470000D03*
X102150000Y-89530000D03*
X102150000Y-97470000D03*
X104690000Y-89530000D03*
X104690000Y-97470000D03*
X107230000Y-89530000D03*
X107230000Y-97470000D03*
X109770000Y-89530000D03*
X109770000Y-97470000D03*
X112310000Y-89530000D03*
X112310000Y-97470000D03*
X114850000Y-89530000D03*
X114850000Y-97470000D03*
X117390000Y-89530000D03*
X117390000Y-97470000D03*
D14*
%TO.C,C1*%
X99000000Y-115000000D03*
X104000000Y-115000000D03*
%TO.C,U2*%
X113380000Y-124300000D03*
X113380000Y-126840000D03*
X113380000Y-129380000D03*
X113380000Y-131920000D03*
X113380000Y-134460000D03*
X113380000Y-137000000D03*
X113380000Y-139540000D03*
X113380000Y-142080000D03*
X121000000Y-124300000D03*
X121000000Y-126840000D03*
X121000000Y-129380000D03*
X121000000Y-131920000D03*
X121000000Y-134460000D03*
X121000000Y-137000000D03*
X121000000Y-139540000D03*
X121000000Y-142080000D03*
D15*
%TO.C,J2*%
X97000000Y-77500000D03*
X99540000Y-77500000D03*
X102080000Y-77500000D03*
X104620000Y-77500000D03*
X107160000Y-77500000D03*
%TO.C,J1*%
X114475000Y-55625000D03*
X114475000Y-58165000D03*
X114475000Y-60705000D03*
X114475000Y-63245000D03*
X114475000Y-65785000D03*
X114475000Y-68325000D03*
D16*
%TO.C,J3*%
X127300000Y-58500000D02*
X127300000Y-56500000D01*
X131000000Y-54500000D02*
X133000000Y-54500000D01*
X131000000Y-60500000D02*
X133000000Y-60500000D01*
D17*
%TO.C,U1*%
X131300000Y-89955000D03*
X131300000Y-92495000D03*
X131300000Y-95035000D03*
X131300000Y-97575000D03*
X131300000Y-100115000D03*
X131300000Y-102655000D03*
X131300000Y-105195000D03*
X131300000Y-107735000D03*
X131300000Y-110275000D03*
X131300000Y-112815000D03*
X131300000Y-115355000D03*
X131300000Y-117895000D03*
X131300000Y-120435000D03*
X131300000Y-122975000D03*
X131300000Y-125515000D03*
X156700000Y-89955000D03*
X156700000Y-92495000D03*
X156700000Y-95035000D03*
X156700000Y-97575000D03*
X156700000Y-100115000D03*
X156700000Y-102655000D03*
X156700000Y-105195000D03*
X156700000Y-107735000D03*
X156700000Y-110275000D03*
X156700000Y-112815000D03*
X156700000Y-115355000D03*
X156700000Y-117895000D03*
X156700000Y-120435000D03*
X156700000Y-122975000D03*
X156700000Y-125515000D03*
D18*
%TO.C,J8*%
X104000000Y-137460000D03*
X104000000Y-142540000D03*
%TO.C,J7*%
X183500000Y-139460000D03*
X183500000Y-144540000D03*
D19*
%TO.C,BT1*%
X178500000Y-58000000D03*
X178500000Y-130000000D03*
M02*
